<?xml version="1.0" standalone="no"?>
<!DOCTYPE svg PUBLIC "-//W3C//DTD SVG 20010904//EN"
 "http://www.w3.org/TR/2001/REC-SVG-20010904/DTD/svg10.dtd">
<svg version="1.0" xmlns="http://www.w3.org/2000/svg"
 width="520.000000pt" height="520.000000pt" viewBox="0 0 520.000000 520.000000"
 preserveAspectRatio="xMidYMid meet">
<metadata>
Created by potrace 1.14, written by Peter Selinger 2001-2017
</metadata>
<g transform="translate(0.000000,520.000000) scale(0.100000,-0.100000)"
fill="#000000" stroke="none">
<path d="M255 5061 c-49 -23 -99 -74 -119 -123 -14 -33 -16 -263 -16 -2140 0
-2027 1 -2104 19 -2143 23 -50 74 -99 126 -121 32 -13 77 -17 215 -18 96 -1
181 -5 189 -10 10 -6 12 -5 7 2 -4 7 -1 12 9 12 9 0 13 -4 10 -10 -5 -9 1 -12
21 -9 11 1 22 -24 17 -38 -3 -7 -10 -10 -16 -6 -6 4 -7 1 -2 -6 6 -10 11 -10
22 2 12 12 13 19 3 36 -6 12 -15 19 -21 16 -5 -4 -9 -2 -9 3 0 5 67 9 150 8
83 0 150 -4 150 -9 0 -4 -4 -6 -9 -3 -11 7 -23 -22 -15 -35 3 -5 11 -9 17 -8
9 0 9 2 0 6 -19 7 -16 21 7 28 11 4 18 11 15 16 -4 5 1 9 9 9 10 0 13 -6 10
-15 -4 -8 -11 -15 -16 -15 -6 0 -7 -8 -3 -17 4 -10 8 -24 8 -30 0 -7 4 -13 9
-13 10 0 10 11 -1 29 -6 9 -4 23 6 38 16 24 43 31 43 11 0 -6 -3 -8 -7 -5 -3
4 -13 -3 -21 -14 -13 -19 -12 -23 7 -42 12 -12 21 -16 21 -9 0 7 -4 12 -9 12
-22 0 -19 31 4 42 13 6 22 14 20 18 -2 4 38 7 90 7 52 0 95 -4 95 -9 0 -5 -4
-7 -9 -4 -5 3 -11 -1 -15 -9 -3 -8 -10 -15 -15 -15 -6 0 -8 7 -5 15 9 21 -3
19 -15 -4 -8 -15 -7 -18 7 -17 27 3 72 28 66 37 -3 5 2 9 11 9 10 0 13 -5 9
-12 -5 -7 -3 -8 6 -3 18 11 70 14 70 4 0 -16 -21 -20 -37 -7 -15 12 -15 11 -2
-9 7 -13 19 -25 26 -27 18 -7 44 4 37 15 -3 5 2 9 10 9 9 0 16 4 16 8 0 17
-30 8 -36 -10 -3 -10 -10 -18 -15 -18 -12 0 -11 12 4 31 10 14 40 16 213 15
196 -1 201 -2 218 -23 10 -13 12 -23 6 -23 -6 0 -9 -4 -6 -9 3 -5 -1 -12 -10
-15 -8 -3 -13 -10 -10 -15 4 -5 -2 -12 -11 -15 -14 -4 -13 -4 2 -2 11 1 19 7
18 13 -1 6 4 14 12 17 8 3 15 1 15 -4 0 -6 5 -10 11 -10 8 0 7 5 -2 16 -11 14
-10 18 6 31 14 11 15 14 4 10 -15 -5 -39 9 -39 23 0 4 29 6 65 6 40 0 64 -5
62 -11 -4 -12 -57 -15 -57 -3 0 4 -5 8 -11 8 -8 0 -8 -4 0 -14 10 -11 8 -16
-6 -24 -10 -6 -15 -14 -11 -18 4 -4 16 4 26 16 12 15 23 20 32 15 11 -7 9 -10
-6 -16 -16 -6 -16 -8 -2 -8 9 -1 24 12 34 28 l17 28 108 0 c78 0 109 -4 113
-13 6 -15 -62 -60 -84 -56 -13 2 -13 1 -1 -7 11 -7 26 -1 56 19 44 30 80 26
68 -8 -3 -9 8 -2 26 17 17 19 31 38 31 42 0 4 52 7 115 6 71 -1 114 -6 112
-12 -5 -13 -47 -15 -47 -2 0 6 -3 8 -6 4 -7 -7 27 -56 40 -57 5 0 2 8 -5 17
-12 15 -12 16 4 10 10 -4 27 -1 38 6 17 10 23 8 49 -22 17 -19 33 -32 35 -29
3 3 -5 16 -19 29 -18 17 -22 27 -14 36 7 9 7 13 -1 13 -6 0 -11 -5 -11 -10 0
-7 -6 -7 -19 -1 -14 8 -20 7 -25 -4 -3 -8 -10 -15 -16 -15 -6 0 -6 7 2 19 10
16 23 20 70 19 32 -1 58 -4 58 -8 0 -14 -23 -28 -37 -23 -8 3 -3 -7 11 -22 15
-16 29 -25 33 -22 3 4 1 7 -6 7 -7 0 -9 4 -6 10 3 5 1 10 -6 10 -8 0 -8 4 1
15 13 16 35 21 26 6 -8 -13 4 -42 15 -35 5 3 9 -2 9 -10 0 -9 5 -16 10 -16 14
0 -5 37 -22 43 -10 3 -10 8 2 22 8 10 10 16 3 12 -6 -4 -14 -4 -17 1 -3 5 56
8 130 8 73 0 134 -4 134 -9 0 -4 -4 -6 -9 -3 -11 7 -23 -22 -15 -35 3 -5 11
-9 17 -8 9 0 9 2 0 6 -19 7 -16 21 7 28 11 4 18 11 15 16 -4 5 1 9 9 9 10 0
13 -6 10 -15 -4 -8 -11 -15 -16 -15 -6 0 -7 -8 -3 -17 4 -10 8 -24 8 -30 0 -7
4 -13 9 -13 10 0 10 11 -1 29 -6 9 -4 23 6 38 16 24 43 31 43 11 0 -6 -3 -8
-7 -5 -3 4 -13 -3 -21 -14 -13 -19 -12 -23 7 -42 12 -12 21 -16 21 -9 0 6 -4
12 -9 12 -22 0 -19 31 4 42 13 6 23 14 20 17 -2 4 39 7 91 7 52 1 94 -3 94 -8
0 -5 -4 -7 -9 -4 -5 3 -11 -1 -15 -9 -3 -8 -10 -15 -15 -15 -6 0 -8 7 -5 15 9
21 -3 19 -15 -4 -8 -15 -7 -18 7 -17 27 3 72 28 66 37 -3 5 2 9 11 9 10 0 13
-5 9 -12 -5 -7 -3 -8 6 -3 18 11 70 14 70 4 0 -16 -21 -20 -37 -7 -15 12 -15
11 -2 -9 7 -13 19 -25 26 -27 18 -7 44 4 37 15 -3 5 2 9 10 9 9 0 16 4 16 8 0
17 -30 8 -36 -10 -3 -10 -10 -18 -15 -18 -12 0 -11 12 4 31 10 14 40 16 213
15 196 -1 201 -2 218 -23 10 -13 12 -23 6 -23 -6 0 -9 -4 -6 -9 3 -5 -1 -12
-10 -15 -8 -3 -13 -10 -10 -15 4 -5 -2 -12 -11 -15 -14 -4 -13 -4 2 -2 11 1
19 7 18 13 -1 6 4 14 12 17 8 3 15 1 15 -4 0 -6 5 -10 11 -10 8 0 7 5 -2 16
-11 14 -10 18 6 31 14 11 15 14 4 10 -15 -5 -39 9 -39 23 0 4 29 6 65 6 40 0
64 -5 62 -11 -4 -12 -57 -15 -57 -3 0 4 -5 8 -11 8 -8 0 -8 -4 0 -14 10 -11 8
-16 -6 -24 -10 -6 -15 -14 -11 -18 4 -4 16 4 26 16 12 15 23 20 32 15 11 -7 9
-10 -6 -16 -16 -6 -16 -8 -2 -8 9 -1 24 12 34 28 l17 28 108 0 c78 0 109 -4
113 -13 6 -15 -62 -60 -84 -56 -13 2 -13 1 -1 -7 11 -7 26 -1 56 19 44 30 80
26 68 -8 -3 -9 8 -2 26 17 17 19 31 38 31 42 0 4 62 6 138 5 88 -2 148 2 167
9 17 7 36 10 44 7 8 -3 11 0 7 7 -4 6 -2 9 6 6 8 -3 15 -14 16 -25 4 -43 6
-50 14 -50 4 0 7 11 6 24 -1 14 -6 22 -10 20 -4 -3 -8 0 -8 5 0 6 7 11 15 11
8 0 15 4 15 10 0 5 -6 7 -14 4 -8 -3 -17 0 -22 7 -4 8 -3 10 4 5 8 -4 12 0 12
11 0 15 2 16 15 2 18 -18 28 -59 14 -59 -5 0 -9 -5 -9 -11 0 -8 5 -8 15 1 10
9 15 9 15 1 0 -6 5 -11 11 -11 8 0 8 5 -1 15 -7 8 -8 15 -2 15 18 0 32 -26 22
-38 -6 -7 -7 -10 -4 -7 4 3 13 -3 21 -13 13 -15 13 -15 4 4 -7 15 -7 24 1 32
8 8 8 15 -1 26 -7 8 -10 20 -6 25 4 7 -1 8 -11 4 -12 -4 -15 -3 -10 6 5 8 0
10 -19 7 -17 -3 -25 -1 -22 7 4 14 36 16 54 4 7 -5 14 -1 18 12 6 19 20 22 43
8 6 -5 12 -5 12 -1 0 4 7 -1 16 -12 14 -18 15 -18 4 4 -6 12 -15 20 -20 17 -5
-3 -12 0 -16 6 -5 8 1 10 19 7 15 -3 24 -1 21 3 -6 11 -38 12 -48 2 -7 -8 -11
-9 -37 -12 -5 0 -8 -5 -5 -10 3 -5 -5 -8 -19 -8 -14 0 -22 3 -19 8 5 9 59 40
69 39 24 -1 27 2 12 11 -13 8 -21 6 -33 -5 -18 -19 -39 -21 -28 -4 5 7 3 8 -5
4 -7 -5 -10 -10 -7 -13 2 -3 -5 -16 -17 -29 -31 -36 -33 -21 -2 20 15 19 28
41 29 48 1 7 4 18 7 23 4 6 5 25 4 43 -1 19 3 31 9 29 13 -4 15 -39 2 -48 -4
-4 4 -6 18 -7 24 0 25 2 9 13 -14 11 -15 15 -4 28 7 9 10 21 6 27 -3 5 1 13 9
16 13 5 12 9 -7 24 -12 10 -18 22 -14 26 4 5 13 2 18 -6 9 -13 10 -13 7 -1 -5
19 -19 23 -38 11 -13 -8 -12 -12 8 -25 12 -9 19 -21 16 -27 -4 -6 -9 -5 -15 3
-4 7 -11 10 -16 5 -4 -4 0 -12 10 -17 9 -6 17 -14 17 -20 0 -5 -8 -4 -19 3
-15 9 -19 23 -19 72 1 57 14 85 41 86 15 0 6 -19 -11 -24 -18 -6 -27 -36 -10
-36 4 0 8 7 8 16 0 8 4 13 9 10 11 -7 22 19 15 37 -2 7 -14 19 -27 26 -20 13
-21 13 -9 -2 13 -16 9 -37 -7 -37 -10 0 -7 52 4 70 5 9 4 11 -3 6 -7 -4 -12
-1 -12 9 0 9 4 14 9 11 9 -6 34 39 37 66 1 14 -2 15 -17 7 -23 -12 -25 -24 -4
-15 8 3 15 1 15 -5 0 -5 -7 -12 -15 -15 -8 -4 -12 -10 -9 -15 3 -5 1 -9 -4 -9
-5 0 -9 27 -10 60 0 33 3 60 7 60 14 0 61 48 61 62 -1 7 -6 3 -13 -10 -7 -12
-16 -20 -20 -16 -4 4 -2 13 4 21 9 9 8 13 0 13 -6 0 -12 -6 -12 -12 -1 -7 -2
-19 -3 -27 -2 -28 -21 -20 -23 9 -1 17 1 28 6 26 4 -3 13 6 19 19 11 23 42 26
42 4 0 -5 6 -9 12 -9 7 0 3 9 -9 21 -19 19 -23 20 -42 7 -11 -8 -18 -18 -14
-21 3 -4 1 -7 -5 -7 -20 0 -13 27 11 43 15 10 29 12 38 6 18 -11 29 -11 29 -1
0 5 -6 9 -12 9 -7 0 -21 4 -30 8 -10 4 -18 3 -18 -3 0 -5 -7 -12 -15 -16 -9
-3 -15 0 -15 10 0 8 4 13 9 9 5 -3 12 4 16 15 7 23 21 26 28 8 4 -10 6 -10 6
-1 1 6 -3 14 -8 17 -13 8 -42 -4 -35 -15 3 -5 1 -9 -3 -9 -5 0 -9 34 -9 75 -1
41 3 72 8 69 4 -3 6 -10 3 -15 -4 -5 -2 -9 4 -9 5 0 12 6 15 13 3 8 8 7 16 -5
6 -10 19 -18 30 -18 13 0 17 -5 13 -19 -3 -10 -1 -21 4 -24 5 -3 8 6 7 21 0
19 -8 28 -25 33 -13 4 -19 8 -14 8 6 1 2 6 -8 12 -9 5 -22 7 -27 4 -13 -8 -13
6 0 25 9 13 11 13 20 0 6 -9 10 -10 10 -3 0 6 -4 14 -9 17 -13 8 -42 -4 -35
-15 3 -5 1 -9 -4 -9 -17 0 -11 73 7 87 19 15 31 16 31 4 0 -5 -8 -12 -18 -15
-18 -6 -27 -36 -10 -36 4 0 8 7 8 16 0 8 4 13 9 10 11 -7 22 19 15 37 -2 7
-14 19 -27 26 -20 13 -21 13 -9 -2 13 -16 9 -37 -7 -37 -10 0 -7 52 4 70 5 9
4 11 -3 6 -7 -4 -12 -1 -12 9 0 9 4 14 9 11 9 -6 34 39 37 66 1 14 -2 15 -17
7 -23 -12 -25 -24 -4 -15 8 3 15 1 15 -5 0 -5 -7 -12 -15 -15 -8 -4 -12 -10
-9 -15 3 -5 1 -9 -4 -9 -5 0 -9 27 -10 60 0 33 3 60 7 60 14 0 61 48 61 62 -1
7 -6 3 -13 -10 -7 -12 -16 -20 -20 -16 -4 4 -2 13 4 21 9 9 8 13 0 13 -6 0
-12 -6 -12 -12 -1 -7 -2 -19 -3 -27 -2 -28 -21 -20 -23 9 -1 17 1 28 6 26 4
-3 13 6 19 19 11 23 42 26 42 4 0 -5 6 -9 12 -9 7 0 3 9 -9 21 -19 19 -23 20
-42 7 -11 -8 -18 -18 -14 -21 3 -4 1 -7 -5 -7 -20 0 -13 27 11 43 15 10 29 12
38 6 18 -11 29 -11 29 -1 0 5 -6 9 -12 9 -7 0 -21 4 -30 8 -10 4 -18 3 -18 -3
0 -5 -7 -12 -15 -16 -9 -3 -15 0 -15 10 0 8 4 13 9 9 5 -3 12 4 16 15 7 23 21
26 28 8 4 -10 6 -10 6 -1 1 6 -3 14 -8 17 -13 8 -42 -4 -35 -15 3 -5 1 -9 -3
-9 -5 0 -9 34 -9 75 -1 41 3 72 8 69 4 -3 6 -10 3 -15 -4 -5 -2 -9 4 -9 5 0
12 6 15 13 3 8 8 7 16 -5 6 -10 19 -18 30 -18 13 0 17 -5 13 -19 -3 -10 -1
-21 4 -24 5 -3 8 6 7 21 0 19 -8 28 -25 33 -13 4 -19 8 -14 8 6 1 2 6 -8 12
-9 5 -22 7 -27 4 -13 -8 -13 6 0 25 9 13 11 13 20 0 6 -9 10 -10 10 -3 0 6 -4
14 -9 17 -13 8 -42 -4 -35 -15 3 -5 1 -9 -4 -9 -17 0 -11 73 7 87 19 15 31 16
31 4 0 -5 -8 -12 -18 -15 -18 -6 -27 -36 -10 -36 4 0 8 7 8 16 0 8 4 13 9 10
11 -7 22 19 15 37 -2 7 -14 19 -27 26 -20 13 -21 13 -9 -2 13 -16 9 -37 -7
-37 -10 0 -7 52 4 70 5 9 4 11 -3 6 -7 -4 -12 -1 -12 9 0 9 4 14 9 11 9 -6 34
39 37 66 1 14 -2 15 -17 7 -23 -12 -25 -24 -4 -15 8 3 15 1 15 -5 0 -5 -7 -12
-15 -15 -8 -4 -12 -10 -9 -15 3 -5 1 -9 -4 -9 -5 0 -9 27 -10 60 0 33 3 60 7
60 14 0 61 48 61 62 -1 7 -6 3 -13 -10 -7 -12 -16 -20 -20 -16 -4 4 -2 13 4
21 9 9 8 13 0 13 -6 0 -12 -6 -12 -12 -1 -7 -2 -19 -3 -27 -2 -28 -21 -20 -23
9 -1 17 1 28 6 26 4 -3 13 6 19 19 11 23 42 26 42 4 0 -5 6 -9 12 -9 7 0 3 9
-9 21 -19 19 -23 20 -42 7 -11 -8 -18 -18 -14 -21 3 -4 1 -7 -5 -7 -20 0 -13
27 11 43 15 10 29 12 38 6 18 -11 29 -11 29 -1 0 5 -6 9 -12 9 -7 0 -21 4 -30
8 -10 4 -18 3 -18 -3 0 -5 -7 -12 -15 -16 -9 -3 -15 0 -15 10 0 8 4 13 9 9 5
-3 12 4 16 15 7 23 21 26 28 8 4 -10 6 -10 6 -1 1 6 -3 14 -8 17 -13 8 -42 -4
-35 -15 3 -5 1 -9 -3 -9 -5 0 -9 34 -9 75 -1 41 3 72 8 69 4 -3 6 -10 3 -15
-4 -5 -2 -9 4 -9 5 0 12 6 15 13 3 8 8 7 16 -5 6 -10 19 -18 30 -18 13 0 17
-5 13 -19 -3 -10 -1 -21 4 -24 5 -3 8 6 7 21 0 19 -8 28 -25 33 -13 4 -19 8
-14 8 6 1 2 6 -8 12 -9 5 -22 7 -27 4 -13 -8 -13 6 0 25 9 13 11 13 20 0 6 -9
10 -10 10 -3 0 6 -4 14 -9 17 -13 8 -42 -4 -35 -15 3 -5 1 -9 -4 -9 -17 0 -11
73 7 87 19 15 31 16 31 4 0 -5 -8 -12 -18 -15 -18 -6 -27 -36 -10 -36 4 0 8 7
8 16 0 8 4 13 9 10 11 -7 22 19 15 37 -2 7 -14 19 -27 26 -20 13 -21 13 -9 -2
13 -16 9 -37 -7 -37 -10 0 -7 52 4 70 5 9 4 11 -3 6 -7 -4 -12 -1 -12 9 0 9 4
14 9 11 9 -6 34 39 37 66 1 14 -2 15 -17 7 -23 -12 -25 -24 -4 -15 8 3 15 1
15 -5 0 -5 -7 -12 -15 -15 -8 -4 -12 -10 -9 -15 3 -5 1 -9 -4 -9 -5 0 -9 27
-10 60 0 33 3 60 7 60 14 0 61 48 61 62 -1 7 -6 3 -13 -10 -7 -12 -16 -20 -20
-16 -4 4 -2 13 4 21 9 9 8 13 0 13 -6 0 -12 -6 -12 -12 -1 -7 -2 -19 -3 -27
-2 -28 -21 -20 -23 9 -1 17 1 28 6 26 4 -3 13 6 19 19 11 23 42 26 42 4 0 -5
5 -9 12 -9 7 0 3 9 -9 21 -19 19 -23 20 -42 7 -11 -8 -18 -18 -14 -21 3 -4 1
-7 -5 -7 -20 0 -13 27 11 43 15 10 29 12 38 6 18 -11 29 -11 29 -1 0 5 -6 9
-12 9 -7 0 -21 4 -30 8 -10 4 -18 3 -18 -3 0 -5 -7 -12 -15 -16 -9 -3 -15 0
-15 10 0 8 4 13 9 9 5 -3 12 4 16 15 7 23 21 26 28 8 4 -10 6 -10 6 -1 1 6 -3
14 -8 17 -13 8 -42 -4 -35 -15 3 -5 1 -9 -3 -9 -5 0 -9 34 -9 75 -1 41 3 72 8
69 4 -3 6 -10 3 -15 -4 -5 -2 -9 4 -9 5 0 12 6 15 13 3 8 8 7 16 -5 6 -10 19
-18 30 -18 13 0 17 -5 13 -19 -3 -10 -1 -21 4 -24 5 -3 8 6 7 21 0 19 -8 28
-25 33 -13 4 -19 8 -14 8 6 1 2 6 -8 12 -9 5 -22 7 -27 4 -13 -8 -13 6 0 25 9
13 11 13 20 0 6 -9 10 -10 10 -3 0 6 -4 14 -9 17 -13 8 -42 -4 -35 -15 3 -5 1
-9 -4 -9 -17 0 -11 73 7 87 19 15 31 16 31 4 0 -5 -8 -12 -18 -15 -18 -6 -27
-36 -10 -36 4 0 8 7 8 16 0 8 4 13 9 10 11 -7 22 19 15 37 -2 7 -14 19 -27 26
-20 13 -21 13 -9 -2 13 -16 9 -37 -7 -37 -10 0 -7 52 4 70 5 9 4 11 -3 6 -7
-4 -12 -1 -12 9 0 9 4 14 9 11 9 -6 34 39 37 66 1 14 -2 15 -17 7 -23 -12 -25
-24 -4 -15 8 3 15 1 15 -5 0 -5 -7 -12 -15 -15 -8 -4 -12 -10 -9 -15 3 -5 1
-9 -4 -9 -5 0 -9 27 -10 60 0 33 3 60 7 60 14 0 61 48 61 62 -1 7 -6 3 -13
-10 -7 -12 -16 -20 -20 -16 -4 4 -2 13 4 21 9 9 8 13 0 13 -6 0 -12 -6 -12
-12 -1 -7 -2 -19 -3 -27 -2 -28 -21 -20 -23 9 -1 17 1 28 6 26 4 -3 13 6 19
19 11 23 42 26 42 4 0 -5 5 -9 12 -9 7 0 3 9 -9 21 -19 19 -23 20 -42 7 -11
-8 -18 -18 -14 -21 3 -4 1 -7 -5 -7 -20 0 -13 27 11 43 15 10 29 12 38 6 18
-11 29 -11 29 -1 0 5 -6 9 -12 9 -7 0 -21 4 -30 8 -10 4 -18 3 -18 -3 0 -5 -7
-12 -15 -16 -9 -3 -15 0 -15 10 0 8 4 13 9 9 5 -3 12 4 16 15 7 23 21 26 28 8
4 -10 6 -10 6 -1 1 6 -3 14 -8 17 -13 8 -42 -4 -35 -15 3 -5 1 -9 -3 -9 -5 0
-9 34 -9 75 -1 41 3 72 8 69 4 -3 6 -10 3 -15 -4 -5 -2 -9 4 -9 5 0 12 6 15
13 3 8 8 7 16 -5 6 -10 19 -18 30 -18 13 0 17 -5 13 -19 -3 -10 -1 -21 4 -24
5 -3 8 6 7 21 0 19 -8 28 -25 33 -13 4 -19 8 -14 8 6 1 2 6 -8 12 -9 5 -22 7
-27 4 -13 -8 -13 6 0 25 9 13 11 13 20 0 6 -9 10 -10 10 -3 0 6 -4 14 -9 17
-13 8 -42 -4 -35 -15 3 -5 1 -9 -4 -9 -17 0 -11 73 6 87 20 15 32 16 32 4 0
-5 -8 -12 -18 -15 -18 -6 -27 -36 -10 -36 4 0 8 7 8 16 0 8 4 13 9 10 11 -7
22 19 15 37 -2 7 -14 19 -27 26 -20 13 -21 13 -9 -2 13 -16 9 -37 -7 -37 -10
0 -7 52 4 70 5 9 4 11 -3 6 -7 -4 -12 -1 -12 9 0 9 4 14 9 11 9 -6 34 39 37
66 1 14 -2 15 -17 7 -23 -12 -25 -24 -4 -15 8 3 15 1 15 -5 0 -5 -7 -12 -15
-15 -8 -4 -12 -10 -9 -15 3 -5 1 -9 -4 -9 -5 0 -9 26 -10 58 -1 53 2 60 26 74
37 22 64 69 50 88 -8 13 -9 12 -5 -1 7 -22 -28 -75 -38 -59 -4 7 -1 17 6 22
11 8 10 8 -4 4 -10 -3 -21 -6 -24 -6 -3 0 0 -7 7 -15 6 -8 9 -19 5 -25 -11
-18 -20 -11 -22 16 -1 18 9 36 28 55 30 30 28 39 -3 15 -10 -7 -15 -16 -11
-19 3 -4 1 -7 -5 -7 -21 0 -13 27 14 45 19 12 29 14 37 6 14 -14 27 -14 27 -1
0 5 -3 9 -7 8 -5 0 -16 2 -25 6 -11 5 -23 2 -33 -8 -20 -20 -25 -20 -25 0 0 8
4 13 9 9 5 -3 12 4 16 15 7 23 21 26 28 8 2 -7 4 1 3 19 -1 17 -4 35 -8 39 -4
3 0 13 8 21 8 8 12 19 9 24 -8 12 -17 11 -39 -6 -18 -14 -18 -15 5 -35 l24
-20 -22 -19 c-12 -10 -19 -21 -16 -25 4 -3 2 -6 -4 -6 -6 0 -10 34 -10 88 0
65 4 90 15 98 12 9 12 13 2 19 -9 5 -11 4 -6 -3 4 -7 2 -12 -4 -12 -13 0 -10
60 4 79 8 11 8 13 0 8 -8 -4 -11 12 -12 51 0 100 -52 184 -137 223 -39 18
-116 19 -2145 19 -2029 0 -2106 -1 -2145 -19z m4475 -456 c-7 -9 -15 -13 -17
-11 -7 7 7 26 19 26 6 0 6 -6 -2 -15z m-47 -4073 c9 -8 17 -20 17 -25 0 -6 -9
-2 -19 7 -11 10 -24 16 -28 13 -5 -3 -10 3 -10 14 -2 20 8 18 40 -9z m-2403
-24 c0 -15 -22 -19 -38 -7 -13 11 -12 8 2 -9 22 -26 15 -28 -19 -6 -35 23 -31
29 15 29 22 0 40 -3 40 -7z m1920 0 c0 -15 -22 -19 -38 -7 -13 11 -12 8 2 -9
22 -26 15 -28 -19 -6 -35 23 -31 29 15 29 22 0 40 -3 40 -7z"/>
<path d="M4727 4819 c7 -7 15 -10 18 -7 3 3 -2 9 -12 12 -14 6 -15 5 -6 -5z"/>
<path d="M4719 4795 c-1 -3 -2 -8 -3 -12 -1 -5 -7 -19 -14 -33 -12 -22 -11
-23 1 -8 8 10 16 16 18 13 3 -2 5 7 5 20 0 22 -4 33 -7 20z"/>
<path d="M4756 4738 c3 -4 3 -8 0 -8 -2 0 -12 -3 -22 -7 -13 -5 -15 -3 -9 7 5
9 4 11 -4 6 -17 -11 -2 -28 20 -21 15 5 18 3 12 -12 -3 -10 -3 -15 1 -11 4 3
8 12 10 20 1 7 5 18 8 24 4 6 1 11 -7 11 -8 0 -12 -4 -9 -9z"/>
<path d="M4794 4702 c4 -3 14 -7 22 -8 9 -1 13 0 10 4 -4 3 -14 7 -22 8 -9 1
-13 0 -10 -4z"/>
<path d="M4773 4685 c0 -8 5 -11 10 -8 6 4 8 0 5 -9 -4 -9 0 -15 8 -15 19 0
18 11 -4 30 -15 14 -19 15 -19 2z"/>
<path d="M4702 4681 c-11 -7 -10 -9 3 -14 9 -4 13 -3 10 3 -3 6 1 10 10 10 9
0 13 -5 10 -10 -3 -6 1 -13 9 -16 9 -3 14 -9 12 -13 -3 -4 5 -8 17 -8 19 -2
18 0 -7 16 -15 10 -27 22 -26 27 2 12 -22 16 -38 5z"/>
<path d="M4690 4640 c0 -5 5 -10 10 -10 6 0 10 5 10 10 0 6 -4 10 -10 10 -5 0
-10 -4 -10 -10z"/>
<path d="M4830 4639 c0 -5 5 -7 10 -4 6 3 10 8 10 11 0 2 -4 4 -10 4 -5 0 -10
-5 -10 -11z"/>
<path d="M4790 4590 c8 -5 20 -10 25 -10 6 0 3 5 -5 10 -8 5 -19 10 -25 10 -5
0 -3 -5 5 -10z"/>
<path d="M4750 4583 c0 -5 10 -19 21 -33 l20 -25 -12 25 c-7 14 -12 28 -11 33
1 4 -2 7 -8 7 -5 0 -10 -3 -10 -7z"/>
<path d="M4833 4565 c0 -8 4 -12 9 -9 5 3 6 10 3 15 -9 13 -12 11 -12 -6z"/>
<path d="M4690 4560 c0 -5 5 -10 10 -10 6 0 10 5 10 10 0 6 -4 10 -10 10 -5 0
-10 -4 -10 -10z"/>
<path d="M4753 4524 c0 -17 2 -22 7 -13 5 6 6 18 3 26 -8 19 -10 16 -10 -13z"/>
<path d="M4796 4515 c-7 -8 -17 -11 -21 -7 -5 4 -5 1 -1 -6 7 -11 11 -11 24 1
10 8 25 13 35 12 11 -2 16 -1 13 3 -12 12 -36 10 -50 -3z"/>
<path d="M4823 4482 c10 -10 14 -22 10 -27 -5 -4 -2 -5 5 -1 11 6 10 12 -4 27
-9 10 -19 19 -22 19 -3 0 2 -8 11 -18z"/>
<path d="M4777 4463 c-3 -5 5 -8 18 -8 13 0 21 3 18 8 -2 4 -10 7 -18 7 -8 0
-16 -3 -18 -7z"/>
<path d="M4725 4440 c-3 -5 -1 -10 4 -10 6 0 11 5 11 10 0 6 -2 10 -4 10 -3 0
-8 -4 -11 -10z"/>
<path d="M4850 4441 c0 -6 4 -13 10 -16 6 -3 7 1 4 9 -7 18 -14 21 -14 7z"/>
<path d="M4774 4415 c-3 -8 -2 -20 2 -26 5 -9 2 -10 -10 -6 -9 4 -15 3 -12 -2
3 -5 -1 -11 -9 -15 -17 -6 -20 -26 -4 -26 5 0 7 5 3 12 -5 8 -2 9 10 5 9 -4
15 -3 12 2 -3 5 0 11 8 14 9 4 12 14 9 27 -4 16 -2 19 11 14 9 -3 16 -4 16 -1
0 13 -31 15 -36 2z"/>
<path d="M4816 4373 c-6 -14 -5 -15 5 -6 7 7 10 15 7 18 -3 3 -9 -2 -12 -12z"/>
<path d="M4705 4342 c-15 -11 -18 -42 -4 -42 7 0 9 3 6 6 -3 4 -2 15 4 25 11
21 9 23 -6 11z"/>
<path d="M4775 4339 c-4 -5 2 -6 11 -2 12 4 15 3 10 -5 -10 -16 -1 -15 12 1 8
10 6 13 -8 14 -11 1 -22 -2 -25 -8z"/>
<path d="M4833 4335 c0 -8 4 -12 9 -9 5 3 6 10 3 15 -9 13 -12 11 -12 -6z"/>
<path d="M4720 4319 c0 -4 11 -6 25 -6 13 0 22 3 20 8 -6 9 -45 8 -45 -2z"/>
<path d="M4777 4303 c-10 -10 -8 -33 3 -33 5 0 6 8 3 18 -6 15 -5 16 13 2 18
-14 18 -14 5 3 -15 19 -15 19 -24 10z"/>
<path d="M4741 4284 c0 -11 3 -14 6 -6 3 7 2 16 -1 19 -3 4 -6 -2 -5 -13z"/>
<path d="M4726 4235 c-21 -32 -20 -39 2 -17 11 9 17 20 15 24 -2 4 7 9 19 11
22 4 22 4 2 6 -13 0 -28 -9 -38 -24z"/>
<path d="M4775 4221 c-3 -5 0 -13 6 -17 8 -5 9 -3 4 6 -6 10 -3 12 13 8 12 -4
20 -2 16 3 -7 12 -31 12 -39 0z"/>
<path d="M4753 4194 c0 -17 2 -22 7 -13 5 6 6 18 3 26 -8 19 -10 16 -10 -13z"/>
<path d="M4721 4194 c-11 -13 -10 -17 5 -29 11 -8 24 -14 29 -14 6 0 2 4 -8
10 -12 7 -16 17 -12 30 8 23 5 23 -14 3z"/>
<path d="M4774 4168 c3 -10 -2 -21 -11 -27 -12 -6 -7 -8 20 -8 19 1 34 5 31 9
-3 4 -12 4 -21 1 -9 -4 -14 -2 -10 3 3 6 1 16 -5 24 -8 12 -9 12 -4 -2z"/>
<path d="M4810 4176 c0 -2 8 -10 18 -17 15 -13 16 -12 3 4 -13 16 -21 21 -21
13z"/>
<path d="M4855 4121 c-3 -5 -2 -12 3 -15 5 -3 9 1 9 9 0 17 -3 19 -12 6z"/>
<path d="M4795 4111 c-3 -5 -2 -12 3 -15 5 -3 9 1 9 9 0 17 -3 19 -12 6z"/>
<path d="M4758 4103 c7 -3 16 -2 19 1 4 3 -2 6 -13 5 -11 0 -14 -3 -6 -6z"/>
<path d="M4730 4080 c-8 -5 -10 -10 -5 -10 6 0 17 5 25 10 8 5 11 10 5 10 -5
0 -17 -5 -25 -10z"/>
<path d="M4770 4076 c0 -23 16 -27 31 -8 13 16 13 16 -5 2 -18 -14 -19 -13
-13 3 3 9 2 17 -3 17 -6 0 -10 -6 -10 -14z"/>
<path d="M4753 4044 c0 -17 2 -22 7 -13 5 6 6 18 3 26 -8 19 -10 16 -10 -13z"/>
<path d="M4816 4053 c-6 -14 -5 -15 5 -6 7 7 10 15 7 18 -3 3 -9 -2 -12 -12z"/>
<path d="M4775 4030 c-9 -14 24 -25 37 -12 8 8 4 9 -12 5 -16 -4 -21 -3 -16 5
4 7 5 12 2 12 -3 0 -8 -5 -11 -10z"/>
<path d="M4833 4015 c0 -8 4 -12 9 -9 5 3 6 10 3 15 -9 13 -12 11 -12 -6z"/>
<path d="M4700 3970 c-12 -7 -10 -9 8 -7 12 0 22 5 22 9 0 11 -12 10 -30 -2z"/>
<path d="M4740 3958 c0 -11 -6 -14 -20 -11 -11 3 -20 0 -20 -6 0 -5 7 -8 15
-5 11 5 13 2 9 -10 -3 -9 -1 -16 5 -16 6 0 10 3 9 8 0 4 2 15 7 25 4 10 5 21
1 24 -3 4 -6 -1 -6 -9z"/>
<path d="M4795 3961 c-6 -11 13 -26 22 -17 4 3 1 6 -6 6 -7 0 -9 5 -6 10 3 6
4 10 1 10 -3 0 -7 -4 -11 -9z"/>
<path d="M4767 3911 c14 -17 33 -20 33 -5 0 3 -4 3 -9 0 -5 -3 -11 1 -15 9 -3
8 -10 15 -16 15 -5 0 -2 -9 7 -19z"/>
<path d="M4800 3926 c0 -2 8 -10 18 -17 15 -13 16 -12 3 4 -13 16 -21 21 -21
13z"/>
<path d="M4753 3884 c0 -17 2 -22 7 -13 5 6 6 18 3 26 -8 19 -10 16 -10 -13z"/>
<path d="M4776 3872 c-3 -5 9 -19 27 -32 18 -13 26 -16 19 -7 -8 9 -11 20 -8
26 4 5 -3 7 -16 3 -14 -3 -19 -2 -14 6 4 7 5 12 2 12 -3 0 -7 -4 -10 -8z"/>
<path d="M4774 3819 c-4 -7 -3 -9 4 -5 5 3 12 0 15 -6 2 -7 7 -10 11 -7 4 3 0
12 -8 18 -11 9 -16 9 -22 0z"/>
<path d="M4773 3774 c-3 -7 -1 -19 3 -25 5 -9 2 -10 -10 -6 -9 4 -15 3 -12 -2
3 -5 -1 -11 -9 -15 -17 -6 -20 -26 -4 -26 5 0 7 5 3 12 -5 8 -2 9 10 5 9 -4
15 -3 12 2 -3 5 0 11 8 14 9 4 12 14 9 28 -4 15 -2 20 5 15 6 -3 13 -3 16 2 3
5 -2 9 -10 9 -9 0 -18 -6 -21 -13z"/>
<path d="M4816 3733 c-6 -14 -5 -15 5 -6 7 7 10 15 7 18 -3 3 -9 -2 -12 -12z"/>
<path d="M4705 3702 c-15 -11 -18 -42 -4 -42 7 0 9 3 6 6 -3 4 -2 15 4 25 11
21 9 23 -6 11z"/>
<path d="M4775 3699 c-4 -5 2 -6 11 -2 12 4 15 3 10 -5 -10 -16 -1 -15 12 1 8
10 6 13 -8 14 -11 1 -22 -2 -25 -8z"/>
<path d="M4833 3695 c0 -8 4 -12 9 -9 5 3 6 10 3 15 -9 13 -12 11 -12 -6z"/>
<path d="M4720 3679 c0 -4 11 -6 25 -6 13 0 22 3 20 8 -6 9 -45 8 -45 -2z"/>
<path d="M4777 3663 c-10 -10 -8 -33 3 -33 5 0 6 8 3 18 -6 15 -5 16 13 2 18
-14 18 -14 5 3 -15 19 -15 19 -24 10z"/>
<path d="M4741 3644 c0 -11 3 -14 6 -6 3 7 2 16 -1 19 -3 4 -6 -2 -5 -13z"/>
<path d="M4726 3595 c-21 -32 -20 -39 2 -17 11 9 17 20 15 24 -2 4 7 9 19 11
22 4 22 4 2 6 -13 0 -28 -9 -38 -24z"/>
<path d="M4775 3581 c-3 -5 0 -13 6 -17 8 -5 9 -3 4 6 -6 10 -3 12 13 8 12 -4
20 -2 16 3 -7 12 -31 12 -39 0z"/>
<path d="M4753 3554 c0 -17 2 -22 7 -13 5 6 6 18 3 26 -8 19 -10 16 -10 -13z"/>
<path d="M4721 3554 c-11 -13 -10 -17 5 -29 11 -8 24 -14 29 -14 6 0 2 4 -8
10 -12 7 -16 17 -12 30 8 23 5 23 -14 3z"/>
<path d="M4774 3528 c3 -10 -2 -21 -11 -27 -12 -6 -7 -8 20 -8 19 1 34 5 31 9
-3 4 -12 4 -21 1 -9 -4 -14 -2 -10 3 3 6 1 16 -5 24 -8 12 -9 12 -4 -2z"/>
<path d="M4810 3536 c0 -2 8 -10 18 -17 15 -13 16 -12 3 4 -13 16 -21 21 -21
13z"/>
<path d="M4855 3481 c-3 -5 -2 -12 3 -15 5 -3 9 1 9 9 0 17 -3 19 -12 6z"/>
<path d="M4795 3471 c-3 -5 -2 -12 3 -15 5 -3 9 1 9 9 0 17 -3 19 -12 6z"/>
<path d="M4758 3463 c7 -3 16 -2 19 1 4 3 -2 6 -13 5 -11 0 -14 -3 -6 -6z"/>
<path d="M4730 3440 c-8 -5 -10 -10 -5 -10 6 0 17 5 25 10 8 5 11 10 5 10 -5
0 -17 -5 -25 -10z"/>
<path d="M4770 3436 c0 -23 16 -27 31 -8 13 16 13 16 -5 2 -18 -14 -19 -13
-13 3 3 9 2 17 -3 17 -6 0 -10 -6 -10 -14z"/>
<path d="M4753 3404 c0 -17 2 -22 7 -13 5 6 6 18 3 26 -8 19 -10 16 -10 -13z"/>
<path d="M4816 3413 c-6 -14 -5 -15 5 -6 7 7 10 15 7 18 -3 3 -9 -2 -12 -12z"/>
<path d="M4775 3390 c-9 -14 24 -25 37 -12 8 8 4 9 -12 5 -16 -4 -21 -3 -16 5
4 7 5 12 2 12 -3 0 -8 -5 -11 -10z"/>
<path d="M4833 3375 c0 -8 4 -12 9 -9 5 3 6 10 3 15 -9 13 -12 11 -12 -6z"/>
<path d="M4700 3330 c-12 -7 -10 -9 8 -7 12 0 22 5 22 9 0 11 -12 10 -30 -2z"/>
<path d="M4740 3318 c0 -11 -6 -14 -20 -11 -11 3 -20 0 -20 -6 0 -5 7 -8 15
-5 11 5 13 2 9 -10 -3 -9 -1 -16 5 -16 6 0 10 3 9 8 0 4 2 15 7 25 4 10 5 21
1 24 -3 4 -6 -1 -6 -9z"/>
<path d="M4795 3321 c-6 -11 13 -26 22 -17 4 3 1 6 -6 6 -7 0 -9 5 -6 10 3 6
4 10 1 10 -3 0 -7 -4 -11 -9z"/>
<path d="M4767 3271 c14 -17 33 -20 33 -5 0 3 -4 3 -9 0 -5 -3 -11 1 -15 9 -3
8 -10 15 -16 15 -5 0 -2 -9 7 -19z"/>
<path d="M4800 3286 c0 -2 8 -10 18 -17 15 -13 16 -12 3 4 -13 16 -21 21 -21
13z"/>
<path d="M4753 3244 c0 -17 2 -22 7 -13 5 6 6 18 3 26 -8 19 -10 16 -10 -13z"/>
<path d="M4776 3232 c-3 -5 9 -19 27 -32 18 -13 26 -16 19 -7 -8 9 -11 20 -8
26 4 5 -3 7 -16 3 -14 -3 -19 -2 -14 6 4 7 5 12 2 12 -3 0 -7 -4 -10 -8z"/>
<path d="M4774 3179 c-4 -7 -3 -9 4 -5 5 3 12 0 15 -6 2 -7 7 -10 11 -7 4 3 0
12 -8 18 -11 9 -16 9 -22 0z"/>
<path d="M4773 3134 c-3 -7 -1 -19 3 -25 5 -9 2 -10 -10 -6 -9 4 -15 3 -12 -2
3 -5 -1 -11 -9 -15 -17 -6 -20 -26 -4 -26 5 0 7 5 3 12 -5 8 -2 9 10 5 9 -4
15 -3 12 2 -3 5 0 11 8 14 9 4 12 14 9 28 -4 15 -2 20 5 15 6 -3 13 -3 16 2 3
5 -2 9 -10 9 -9 0 -18 -6 -21 -13z"/>
<path d="M4816 3093 c-6 -14 -5 -15 5 -6 7 7 10 15 7 18 -3 3 -9 -2 -12 -12z"/>
<path d="M4705 3062 c-15 -11 -18 -42 -4 -42 7 0 9 3 6 6 -3 4 -2 15 4 25 11
21 9 23 -6 11z"/>
<path d="M4775 3059 c-4 -5 2 -6 11 -2 12 4 15 3 10 -5 -10 -16 -1 -15 12 1 8
10 6 13 -8 14 -11 1 -22 -2 -25 -8z"/>
<path d="M4833 3055 c0 -8 4 -12 9 -9 5 3 6 10 3 15 -9 13 -12 11 -12 -6z"/>
<path d="M4720 3039 c0 -4 11 -6 25 -6 13 0 22 3 20 8 -6 9 -45 8 -45 -2z"/>
<path d="M4777 3023 c-10 -10 -8 -33 3 -33 5 0 6 8 3 18 -6 15 -5 16 13 2 18
-14 18 -14 5 3 -15 19 -15 19 -24 10z"/>
<path d="M4741 3004 c0 -11 3 -14 6 -6 3 7 2 16 -1 19 -3 4 -6 -2 -5 -13z"/>
<path d="M4726 2955 c-21 -32 -20 -39 2 -17 11 9 17 20 15 24 -2 4 7 9 19 11
22 4 22 4 2 6 -13 0 -28 -9 -38 -24z"/>
<path d="M4775 2941 c-3 -5 0 -13 6 -17 8 -5 9 -3 4 6 -6 10 -3 12 13 8 12 -4
20 -2 16 3 -7 12 -31 12 -39 0z"/>
<path d="M4753 2914 c0 -17 2 -22 7 -13 5 6 6 18 3 26 -8 19 -10 16 -10 -13z"/>
<path d="M4721 2914 c-11 -13 -10 -17 5 -29 11 -8 24 -14 29 -14 6 0 2 4 -8
10 -12 7 -16 17 -12 30 8 23 5 23 -14 3z"/>
<path d="M4774 2888 c3 -10 -2 -21 -11 -27 -12 -6 -7 -8 20 -8 19 1 34 5 31 9
-3 4 -12 4 -21 1 -9 -4 -14 -2 -10 3 3 6 1 16 -5 24 -8 12 -9 12 -4 -2z"/>
<path d="M4810 2896 c0 -2 8 -10 18 -17 15 -13 16 -12 3 4 -13 16 -21 21 -21
13z"/>
<path d="M4855 2841 c-3 -5 -2 -12 3 -15 5 -3 9 1 9 9 0 17 -3 19 -12 6z"/>
<path d="M4795 2831 c-3 -5 -2 -12 3 -15 5 -3 9 1 9 9 0 17 -3 19 -12 6z"/>
<path d="M4758 2823 c7 -3 16 -2 19 1 4 3 -2 6 -13 5 -11 0 -14 -3 -6 -6z"/>
<path d="M4730 2800 c-8 -5 -10 -10 -5 -10 6 0 17 5 25 10 8 5 11 10 5 10 -5
0 -17 -5 -25 -10z"/>
<path d="M4770 2796 c0 -23 16 -27 31 -8 13 16 13 16 -5 2 -18 -14 -19 -13
-13 3 3 9 2 17 -3 17 -6 0 -10 -6 -10 -14z"/>
<path d="M4753 2764 c0 -17 2 -22 7 -13 5 6 6 18 3 26 -8 19 -10 16 -10 -13z"/>
<path d="M4816 2773 c-6 -14 -5 -15 5 -6 7 7 10 15 7 18 -3 3 -9 -2 -12 -12z"/>
<path d="M4775 2750 c-9 -14 24 -25 37 -12 8 8 4 9 -12 5 -16 -4 -21 -3 -16 5
4 7 5 12 2 12 -3 0 -8 -5 -11 -10z"/>
<path d="M4833 2735 c0 -8 4 -12 9 -9 5 3 6 10 3 15 -9 13 -12 11 -12 -6z"/>
<path d="M4700 2690 c-12 -7 -10 -9 8 -7 12 0 22 5 22 9 0 11 -12 10 -30 -2z"/>
<path d="M4740 2678 c0 -11 -6 -14 -20 -11 -11 3 -20 0 -20 -6 0 -5 7 -8 15
-5 11 5 13 2 9 -10 -3 -9 -1 -16 5 -16 6 0 10 3 9 8 0 4 2 15 7 25 4 10 5 21
1 24 -3 4 -6 -1 -6 -9z"/>
<path d="M4795 2681 c-6 -11 13 -26 22 -17 4 3 1 6 -6 6 -7 0 -9 5 -6 10 3 6
4 10 1 10 -3 0 -7 -4 -11 -9z"/>
<path d="M4767 2631 c14 -17 33 -20 33 -5 0 3 -4 3 -9 0 -5 -3 -11 1 -15 9 -3
8 -10 15 -16 15 -5 0 -2 -9 7 -19z"/>
<path d="M4800 2646 c0 -2 8 -10 18 -17 15 -13 16 -12 3 4 -13 16 -21 21 -21
13z"/>
<path d="M4753 2604 c0 -17 2 -22 7 -13 5 6 6 18 3 26 -8 19 -10 16 -10 -13z"/>
<path d="M4776 2592 c-3 -5 9 -19 27 -32 18 -13 26 -16 19 -7 -8 9 -11 20 -8
26 4 5 -3 7 -16 3 -14 -3 -19 -2 -14 6 4 7 5 12 2 12 -3 0 -7 -4 -10 -8z"/>
<path d="M4774 2539 c-4 -7 -3 -9 4 -5 5 3 12 0 15 -6 2 -7 7 -10 11 -7 4 3 0
12 -8 18 -11 9 -16 9 -22 0z"/>
<path d="M4773 2494 c-3 -7 -1 -19 3 -25 5 -9 2 -10 -10 -6 -9 4 -15 3 -12 -2
3 -5 -1 -11 -9 -15 -17 -6 -20 -26 -4 -26 5 0 7 5 3 12 -5 8 -2 9 10 5 9 -4
15 -3 12 2 -3 5 0 11 8 14 9 4 12 14 9 28 -4 15 -2 20 5 15 6 -3 13 -3 16 2 3
5 -2 9 -10 9 -9 0 -18 -6 -21 -13z"/>
<path d="M4816 2453 c-6 -14 -5 -15 5 -6 7 7 10 15 7 18 -3 3 -9 -2 -12 -12z"/>
<path d="M4705 2422 c-15 -11 -18 -42 -4 -42 7 0 9 3 6 6 -3 4 -2 15 4 25 11
21 9 23 -6 11z"/>
<path d="M4775 2419 c-4 -5 2 -6 11 -2 12 4 15 3 10 -5 -10 -16 -1 -15 12 1 8
10 6 13 -8 14 -11 1 -22 -2 -25 -8z"/>
<path d="M4833 2415 c0 -8 4 -12 9 -9 5 3 6 10 3 15 -9 13 -12 11 -12 -6z"/>
<path d="M4720 2399 c0 -4 11 -6 25 -6 13 0 22 3 20 8 -6 9 -45 8 -45 -2z"/>
<path d="M4777 2383 c-10 -10 -8 -33 3 -33 5 0 6 8 3 18 -6 15 -5 16 13 2 18
-14 18 -14 5 3 -15 19 -15 19 -24 10z"/>
<path d="M4741 2364 c0 -11 3 -14 6 -6 3 7 2 16 -1 19 -3 4 -6 -2 -5 -13z"/>
<path d="M4726 2315 c-21 -32 -20 -39 2 -17 11 9 17 20 15 24 -2 4 7 9 19 11
22 4 22 4 2 6 -13 0 -28 -9 -38 -24z"/>
<path d="M4775 2301 c-3 -5 0 -13 6 -17 8 -5 9 -3 4 6 -6 10 -3 12 13 8 12 -4
20 -2 16 3 -7 12 -31 12 -39 0z"/>
<path d="M4753 2274 c0 -17 2 -22 7 -13 5 6 6 18 3 26 -8 19 -10 16 -10 -13z"/>
<path d="M4721 2274 c-11 -13 -10 -17 5 -29 11 -8 24 -14 29 -14 6 0 2 4 -8
10 -12 7 -16 17 -12 30 8 23 5 23 -14 3z"/>
<path d="M4774 2248 c3 -10 -2 -21 -11 -27 -12 -6 -7 -8 20 -8 19 1 34 5 31 9
-3 4 -12 4 -21 1 -9 -4 -14 -2 -10 3 3 6 1 16 -5 24 -8 12 -9 12 -4 -2z"/>
<path d="M4810 2256 c0 -2 8 -10 18 -17 15 -13 16 -12 3 4 -13 16 -21 21 -21
13z"/>
<path d="M4855 2201 c-3 -5 -2 -12 3 -15 5 -3 9 1 9 9 0 17 -3 19 -12 6z"/>
<path d="M4795 2191 c-3 -5 -2 -12 3 -15 5 -3 9 1 9 9 0 17 -3 19 -12 6z"/>
<path d="M4758 2183 c7 -3 16 -2 19 1 4 3 -2 6 -13 5 -11 0 -14 -3 -6 -6z"/>
<path d="M4730 2160 c-8 -5 -10 -10 -5 -10 6 0 17 5 25 10 8 5 11 10 5 10 -5
0 -17 -5 -25 -10z"/>
<path d="M4770 2156 c0 -23 16 -27 31 -8 13 16 13 16 -5 2 -18 -14 -19 -13
-13 3 3 9 2 17 -3 17 -6 0 -10 -6 -10 -14z"/>
<path d="M4753 2124 c0 -17 2 -22 7 -13 5 6 6 18 3 26 -8 19 -10 16 -10 -13z"/>
<path d="M4816 2133 c-6 -14 -5 -15 5 -6 7 7 10 15 7 18 -3 3 -9 -2 -12 -12z"/>
<path d="M4775 2110 c-9 -14 24 -25 37 -12 8 8 4 9 -12 5 -16 -4 -21 -3 -16 5
4 7 5 12 2 12 -3 0 -8 -5 -11 -10z"/>
<path d="M4833 2095 c0 -8 4 -12 9 -9 5 3 6 10 3 15 -9 13 -12 11 -12 -6z"/>
<path d="M4700 2050 c-12 -7 -10 -9 8 -7 12 0 22 5 22 9 0 11 -12 10 -30 -2z"/>
<path d="M4740 2038 c0 -11 -6 -14 -20 -11 -11 3 -20 0 -20 -6 0 -5 7 -8 15
-5 11 5 13 2 9 -10 -3 -9 -1 -16 5 -16 6 0 10 3 9 8 0 4 2 15 7 25 4 10 5 21
1 24 -3 4 -6 -1 -6 -9z"/>
<path d="M4795 2041 c-6 -11 13 -26 22 -17 4 3 1 6 -6 6 -7 0 -9 5 -6 10 3 6
4 10 1 10 -3 0 -7 -4 -11 -9z"/>
<path d="M4767 1991 c14 -17 33 -20 33 -5 0 3 -4 3 -9 0 -5 -3 -11 1 -15 9 -3
8 -10 15 -16 15 -5 0 -2 -9 7 -19z"/>
<path d="M4800 2006 c0 -2 8 -10 18 -17 15 -13 16 -12 3 4 -13 16 -21 21 -21
13z"/>
<path d="M4753 1964 c0 -17 2 -22 7 -13 5 6 6 18 3 26 -8 19 -10 16 -10 -13z"/>
<path d="M4776 1952 c-3 -5 9 -19 27 -32 18 -13 26 -16 19 -7 -8 9 -11 20 -8
26 4 5 -3 7 -16 3 -14 -3 -19 -2 -14 6 4 7 5 12 2 12 -3 0 -7 -4 -10 -8z"/>
<path d="M4774 1899 c-4 -7 -3 -9 4 -5 5 3 12 0 15 -6 2 -7 7 -10 11 -7 4 3 0
12 -8 18 -11 9 -16 9 -22 0z"/>
<path d="M4773 1854 c-3 -7 -1 -19 3 -25 5 -9 2 -10 -10 -6 -9 4 -15 3 -12 -2
3 -5 -1 -11 -9 -15 -17 -6 -20 -26 -4 -26 5 0 7 5 3 12 -5 8 -2 9 10 5 9 -4
15 -3 12 2 -3 5 0 11 8 14 9 4 12 14 9 28 -4 15 -2 20 5 15 6 -3 13 -3 16 2 3
5 -2 9 -10 9 -9 0 -18 -6 -21 -13z"/>
<path d="M4816 1813 c-6 -14 -5 -15 5 -6 7 7 10 15 7 18 -3 3 -9 -2 -12 -12z"/>
<path d="M4705 1782 c-15 -11 -18 -42 -4 -42 7 0 9 3 6 6 -3 4 -2 15 4 25 11
21 9 23 -6 11z"/>
<path d="M4775 1779 c-4 -5 2 -6 11 -2 12 4 15 3 10 -5 -10 -16 -1 -15 12 1 8
10 6 13 -8 14 -11 1 -22 -2 -25 -8z"/>
<path d="M4833 1775 c0 -8 4 -12 9 -9 5 3 6 10 3 15 -9 13 -12 11 -12 -6z"/>
<path d="M4720 1759 c0 -4 11 -6 25 -6 13 0 22 3 20 8 -6 9 -45 8 -45 -2z"/>
<path d="M4777 1743 c-10 -10 -8 -33 3 -33 5 0 6 8 3 18 -6 15 -5 16 13 2 18
-14 18 -14 5 3 -15 19 -15 19 -24 10z"/>
<path d="M4741 1724 c0 -11 3 -14 6 -6 3 7 2 16 -1 19 -3 4 -6 -2 -5 -13z"/>
<path d="M4726 1675 c-21 -32 -20 -39 2 -17 11 9 17 20 15 24 -2 4 7 9 19 11
22 4 22 4 2 6 -13 0 -28 -9 -38 -24z"/>
<path d="M4775 1661 c-3 -5 0 -13 6 -17 8 -5 9 -3 4 6 -6 10 -3 12 13 8 12 -4
20 -2 16 3 -7 12 -31 12 -39 0z"/>
<path d="M4753 1634 c0 -17 2 -22 7 -13 5 6 6 18 3 26 -8 19 -10 16 -10 -13z"/>
<path d="M4721 1634 c-11 -13 -10 -17 5 -29 11 -8 24 -14 29 -14 6 0 2 4 -8
10 -12 7 -16 17 -12 30 8 23 5 23 -14 3z"/>
<path d="M4774 1608 c3 -10 -2 -21 -11 -27 -12 -6 -7 -8 20 -8 19 1 34 5 31 9
-3 4 -12 4 -21 1 -9 -4 -14 -2 -10 3 3 6 1 16 -5 24 -8 12 -9 12 -4 -2z"/>
<path d="M4810 1616 c0 -2 8 -10 18 -17 15 -13 16 -12 3 4 -13 16 -21 21 -21
13z"/>
<path d="M4855 1561 c-3 -5 -2 -12 3 -15 5 -3 9 1 9 9 0 17 -3 19 -12 6z"/>
<path d="M4795 1551 c-3 -5 -2 -12 3 -15 5 -3 9 1 9 9 0 17 -3 19 -12 6z"/>
<path d="M4758 1543 c7 -3 16 -2 19 1 4 3 -2 6 -13 5 -11 0 -14 -3 -6 -6z"/>
<path d="M4730 1520 c-8 -5 -10 -10 -5 -10 6 0 17 5 25 10 8 5 11 10 5 10 -5
0 -17 -5 -25 -10z"/>
<path d="M4770 1516 c0 -23 16 -27 31 -8 13 16 13 16 -5 2 -18 -14 -19 -13
-13 3 3 9 2 17 -3 17 -6 0 -10 -6 -10 -14z"/>
<path d="M4753 1484 c0 -17 2 -22 7 -13 5 6 6 18 3 26 -8 19 -10 16 -10 -13z"/>
<path d="M4816 1493 c-6 -14 -5 -15 5 -6 7 7 10 15 7 18 -3 3 -9 -2 -12 -12z"/>
<path d="M4775 1470 c-9 -14 24 -25 37 -12 8 8 4 9 -12 5 -16 -4 -21 -3 -16 5
4 7 5 12 2 12 -3 0 -8 -5 -11 -10z"/>
<path d="M4833 1455 c0 -8 4 -12 9 -9 5 3 6 10 3 15 -9 13 -12 11 -12 -6z"/>
<path d="M4700 1410 c-12 -7 -10 -9 8 -7 12 0 22 5 22 9 0 11 -12 10 -30 -2z"/>
<path d="M4740 1398 c0 -11 -6 -14 -20 -11 -11 3 -20 0 -20 -6 0 -5 7 -8 15
-5 11 5 13 2 9 -10 -3 -9 -1 -16 5 -16 6 0 10 3 9 8 0 4 2 15 7 25 4 10 5 21
1 24 -3 4 -6 -1 -6 -9z"/>
<path d="M4795 1401 c-6 -11 13 -26 22 -17 4 3 1 6 -6 6 -7 0 -9 5 -6 10 3 6
4 10 1 10 -3 0 -7 -4 -11 -9z"/>
<path d="M4767 1351 c14 -17 33 -20 33 -5 0 3 -4 3 -9 0 -5 -3 -11 1 -15 9 -3
8 -10 15 -16 15 -5 0 -2 -9 7 -19z"/>
<path d="M4800 1366 c0 -2 8 -10 18 -17 15 -13 16 -12 3 4 -13 16 -21 21 -21
13z"/>
<path d="M4753 1324 c0 -17 2 -22 7 -13 5 6 6 18 3 26 -8 19 -10 16 -10 -13z"/>
<path d="M4776 1312 c-3 -5 9 -19 27 -32 18 -13 26 -16 19 -7 -8 9 -11 20 -8
26 4 5 -3 7 -16 3 -14 -3 -19 -2 -14 6 4 7 5 12 2 12 -3 0 -7 -4 -10 -8z"/>
<path d="M4774 1259 c-4 -7 -3 -9 4 -5 5 3 12 0 15 -6 2 -7 7 -10 11 -7 4 3 0
12 -8 18 -11 9 -16 9 -22 0z"/>
<path d="M4773 1214 c-3 -7 -1 -19 3 -25 5 -9 2 -10 -10 -6 -9 4 -15 3 -12 -2
3 -5 -1 -11 -9 -15 -17 -6 -20 -26 -4 -26 5 0 7 5 3 12 -5 8 -2 9 10 5 9 -4
15 -3 12 2 -3 5 0 11 8 14 9 4 12 14 9 28 -4 15 -2 20 5 15 6 -3 13 -3 16 2 3
5 -2 9 -10 9 -9 0 -18 -6 -21 -13z"/>
<path d="M4816 1173 c-6 -14 -5 -15 5 -6 7 7 10 15 7 18 -3 3 -9 -2 -12 -12z"/>
<path d="M4705 1142 c-15 -11 -18 -42 -4 -42 7 0 9 3 6 6 -3 4 -2 15 4 25 11
21 9 23 -6 11z"/>
<path d="M4775 1139 c-4 -5 2 -6 11 -2 12 4 15 3 10 -5 -10 -16 -1 -15 12 1 8
10 6 13 -8 14 -11 1 -22 -2 -25 -8z"/>
<path d="M4833 1135 c0 -8 4 -12 9 -9 5 3 6 10 3 15 -9 13 -12 11 -12 -6z"/>
<path d="M4720 1119 c0 -4 11 -6 25 -6 13 0 22 3 20 8 -6 9 -45 8 -45 -2z"/>
<path d="M4777 1103 c-10 -10 -8 -33 3 -33 5 0 6 8 3 18 -6 15 -5 16 13 2 18
-14 18 -14 5 3 -15 19 -15 19 -24 10z"/>
<path d="M4741 1084 c0 -11 3 -14 6 -6 3 7 2 16 -1 19 -3 4 -6 -2 -5 -13z"/>
<path d="M4726 1035 c-21 -32 -20 -39 2 -17 11 9 17 20 15 24 -2 4 7 9 19 11
22 4 22 4 2 6 -13 0 -28 -9 -38 -24z"/>
<path d="M4775 1021 c-3 -5 0 -13 6 -17 8 -5 9 -3 4 6 -6 10 -3 12 13 8 12 -4
20 -2 16 3 -7 12 -31 12 -39 0z"/>
<path d="M4754 992 c2 -21 0 -31 -8 -29 -6 2 -10 14 -8 26 2 21 1 21 -14 6
-15 -15 -15 -17 2 -30 25 -19 29 -18 45 2 12 14 12 16 0 8 -11 -6 -13 -4 -9 7
4 8 2 21 -3 29 -6 9 -8 3 -5 -19z"/>
<path d="M4810 976 c0 -2 8 -10 18 -17 15 -13 16 -12 3 4 -13 16 -21 21 -21
13z"/>
<path d="M4767 946 c-16 -12 -14 -14 17 -13 19 1 33 5 30 9 -3 4 -12 4 -21 1
-11 -4 -14 -3 -9 5 9 15 5 15 -17 -2z"/>
<path d="M4855 921 c-3 -5 -2 -12 3 -15 5 -3 9 1 9 9 0 17 -3 19 -12 6z"/>
<path d="M4795 911 c-3 -5 -2 -12 3 -15 5 -3 9 1 9 9 0 17 -3 19 -12 6z"/>
<path d="M4758 903 c7 -3 16 -2 19 1 4 3 -2 6 -13 5 -11 0 -14 -3 -6 -6z"/>
<path d="M4730 880 c-8 -5 -10 -10 -5 -10 6 0 17 5 25 10 8 5 11 10 5 10 -5 0
-17 -5 -25 -10z"/>
<path d="M4770 876 c0 -23 16 -27 31 -8 13 16 13 16 -5 2 -18 -14 -19 -13 -13
3 3 9 2 17 -3 17 -6 0 -10 -6 -10 -14z"/>
<path d="M4753 844 c0 -17 2 -22 7 -13 5 6 6 18 3 26 -8 19 -10 16 -10 -13z"/>
<path d="M4816 853 c-6 -14 -5 -15 5 -6 7 7 10 15 7 18 -3 3 -9 -2 -12 -12z"/>
<path d="M4775 830 c-9 -14 24 -25 37 -12 8 8 4 9 -12 5 -16 -4 -21 -3 -16 5
4 7 5 12 2 12 -3 0 -8 -5 -11 -10z"/>
<path d="M4833 815 c0 -8 4 -12 9 -9 5 3 6 10 3 15 -9 13 -12 11 -12 -6z"/>
<path d="M4767 799 c7 -7 15 -10 18 -7 3 3 -2 9 -12 12 -14 6 -15 5 -6 -5z"/>
<path d="M4750 783 c5 -2 10 -9 10 -14 0 -6 -5 -7 -12 -3 -7 4 -8 3 -4 -4 4
-7 2 -12 -3 -12 -6 0 -11 -5 -11 -11 0 -8 6 -7 17 2 15 12 16 12 10 -4 -4 -10
-3 -16 2 -12 14 8 8 58 -7 61 -7 1 -8 0 -2 -3z"/>
<path d="M4790 760 c-9 -6 -10 -10 -3 -10 6 0 15 5 18 10 8 12 4 12 -15 0z"/>
<path d="M4804 735 c-4 -8 -10 -13 -14 -10 -14 9 -23 -16 -11 -28 9 -9 10 -7
5 7 -5 13 -4 17 4 12 6 -3 16 3 22 14 6 11 8 20 5 20 -3 0 -8 -7 -11 -15z"/>
<path d="M4819 713 c-13 -16 -12 -17 4 -4 16 13 21 21 13 21 -2 0 -10 -8 -17
-17z"/>
<path d="M4753 684 c0 -17 2 -22 7 -13 5 6 6 18 3 26 -8 19 -10 16 -10 -13z"/>
<path d="M4700 690 c-8 -5 -10 -10 -5 -10 6 0 4 -4 -4 -9 -8 -5 -9 -11 -3 -15
6 -3 13 3 17 14 7 22 20 26 28 10 3 -6 4 -5 3 2 -3 16 -18 20 -36 8z"/>
<path d="M4810 680 c0 -5 9 -8 20 -7 21 1 18 10 -5 13 -8 1 -15 -2 -15 -6z"/>
<path d="M4790 671 c0 -7 -5 -9 -12 -5 -7 5 -8 3 -3 -5 5 -9 10 -10 18 -2 6 6
8 14 4 18 -4 3 -7 1 -7 -6z"/>
<path d="M4810 656 c0 -2 8 -10 18 -17 15 -13 16 -12 3 4 -13 16 -21 21 -21
13z"/>
<path d="M4790 636 c0 -2 8 -10 18 -17 15 -13 16 -12 3 4 -13 16 -21 21 -21
13z"/>
<path d="M4856 622 c-3 -5 1 -9 9 -9 8 0 12 4 9 9 -3 4 -7 8 -9 8 -2 0 -6 -4
-9 -8z"/>
<path d="M4724 582 c-5 -4 -11 -18 -11 -31 -1 -13 0 -21 3 -18 5 4 7 13 13 47
1 3 6 -2 11 -10 6 -9 10 -10 10 -3 0 16 -13 23 -26 15z"/>
<path d="M4760 556 c0 -8 4 -17 9 -20 5 -4 7 3 4 14 -6 23 -13 26 -13 6z"/>
<path d="M4737 543 c-9 -9 -9 -41 1 -46 4 -3 16 0 27 4 18 8 18 9 -3 5 -21 -4
-23 -2 -18 20 7 25 5 29 -7 17z"/>
<path d="M4795 541 c-3 -5 -2 -12 3 -15 5 -3 9 1 9 9 0 17 -3 19 -12 6z"/>
<path d="M4523 519 c-13 -4 -23 -14 -23 -21 0 -9 3 -9 8 -2 12 17 39 23 51 11
17 -17 13 -31 -4 -17 -25 21 -45 -5 -22 -27 9 -10 17 -12 17 -6 0 6 -6 13 -12
16 -7 2 -10 8 -6 12 10 11 39 -15 31 -28 -4 -6 -1 -7 7 -2 10 6 12 4 7 -8 -3
-10 -2 -17 3 -17 13 0 13 27 0 35 -5 3 -7 11 -4 18 8 22 -28 46 -53 36z"/>
<path d="M445 500 c-5 -8 -4 -11 2 -7 6 4 13 0 17 -8 6 -18 26 -20 26 -3 0 6
-3 8 -7 5 -3 -4 -11 1 -18 10 -9 13 -14 13 -20 3z"/>
<path d="M495 500 c3 -5 8 -10 11 -10 2 0 4 5 4 10 0 6 -5 10 -11 10 -5 0 -7
-4 -4 -10z"/>
<path d="M556 494 c15 -13 16 -15 2 -10 -12 3 -15 1 -12 -9 5 -11 10 -12 24
-3 17 11 17 13 2 25 -25 18 -39 16 -16 -3z"/>
<path d="M628 496 c-19 -14 -23 -26 -10 -26 4 0 13 9 20 20 14 23 13 24 -10 6z"/>
<path d="M750 503 c0 -4 5 -15 10 -23 8 -13 10 -13 10 2 0 9 -4 20 -10 23 -5
3 -10 3 -10 -2z"/>
<path d="M780 502 c0 -4 9 -8 20 -8 11 0 20 4 20 8 0 4 -9 8 -20 8 -11 0 -20
-4 -20 -8z"/>
<path d="M837 503 c-4 -3 -7 -13 -7 -22 1 -13 3 -13 11 2 11 19 8 33 -4 20z"/>
<path d="M861 488 c-11 -17 -10 -23 2 -35 11 -12 16 -12 22 -2 5 7 4 10 -2 6
-6 -4 -13 0 -17 8 -3 8 -1 17 4 20 6 4 10 1 10 -4 0 -6 5 -11 11 -11 5 0 7 5
4 10 -3 6 -2 10 4 10 5 0 12 -5 14 -10 3 -6 4 -5 3 2 -2 7 -9 13 -17 13 -8 0
-16 3 -19 7 -3 4 -12 -2 -19 -14z"/>
<path d="M959 508 c-6 -11 -5 -48 1 -48 4 0 8 11 8 25 0 21 -5 32 -9 23z"/>
<path d="M1118 496 c-10 -7 -18 -17 -18 -22 0 -4 5 -3 12 4 14 14 28 16 28 4
0 -5 -10 -14 -22 -20 -13 -6 -18 -11 -12 -11 22 -2 47 25 38 42 -8 13 -12 13
-26 3z"/>
<path d="M1187 496 c-15 -12 -15 -14 -2 -19 8 -4 12 -13 9 -21 -3 -8 -1 -17 4
-20 5 -3 10 6 10 19 0 14 -5 25 -10 25 -5 0 -6 5 -3 10 4 6 11 8 16 5 5 -4 9
-1 9 4 0 15 -11 13 -33 -3z"/>
<path d="M1466 494 c-7 -19 0 -34 17 -34 7 0 6 4 -3 11 -11 8 -12 12 -2 16 14
5 16 23 3 23 -5 0 -12 -7 -15 -16z"/>
<path d="M1506 494 c-3 -9 -2 -23 2 -31 8 -13 10 -13 15 2 4 9 11 13 17 10 5
-3 20 1 32 11 14 10 16 14 6 11 -9 -3 -19 -3 -21 1 -2 4 -2 1 -1 -5 5 -18 -15
-16 -22 2 -8 20 -20 19 -28 -1z m24 -8 c0 -3 -4 -8 -10 -11 -5 -3 -10 -1 -10
4 0 6 5 11 10 11 6 0 10 -2 10 -4z"/>
<path d="M1605 500 c3 -5 8 -10 11 -10 2 0 4 5 4 10 0 6 -5 10 -11 10 -5 0 -7
-4 -4 -10z"/>
<path d="M1637 503 c-4 -3 -7 -13 -7 -22 1 -13 3 -13 11 2 11 19 8 33 -4 20z"/>
<path d="M1661 488 c-11 -17 -10 -23 2 -35 11 -12 16 -12 22 -2 5 7 4 10 -2 6
-6 -4 -13 0 -17 8 -3 8 -1 17 4 20 6 4 10 1 10 -4 0 -6 5 -11 11 -11 5 0 7 5
4 10 -3 6 -2 10 4 10 5 0 12 -5 14 -10 3 -6 4 -5 3 2 -2 7 -9 13 -17 13 -8 0
-16 3 -19 7 -3 4 -12 -2 -19 -14z"/>
<path d="M1756 502 c-3 -5 -3 -17 -2 -28 2 -10 -2 -23 -8 -27 -7 -6 -7 -7 2
-5 8 2 14 8 14 13 1 6 8 16 17 23 14 12 14 13 -3 8 -13 -5 -17 -2 -12 9 6 16
1 21 -8 7z"/>
<path d="M1800 495 c9 -11 8 -18 -9 -36 -11 -13 -19 -25 -16 -27 9 -9 46 42
40 56 -3 7 -5 16 -5 18 0 2 -5 4 -11 4 -8 0 -8 -4 1 -15z"/>
<path d="M1975 493 c-3 -10 0 -11 14 -4 10 6 21 7 25 4 3 -3 6 -1 6 5 0 15
-38 11 -45 -5z"/>
<path d="M2031 492 c-8 -15 -6 -19 7 -19 9 0 23 4 29 9 9 7 15 5 19 -6 3 -9
10 -16 16 -16 5 0 6 5 3 10 -3 6 -2 10 4 10 5 0 12 -5 14 -10 3 -6 4 -5 3 2
-2 7 -10 13 -20 13 -9 0 -21 6 -25 13 -7 11 -9 10 -14 -2 -4 -9 -11 -16 -16
-16 -6 0 -8 7 -5 15 9 21 -3 19 -15 -3z"/>
<path d="M2132 490 c7 -11 14 -16 16 -10 2 5 10 10 18 10 8 0 14 5 14 10 0 7
-6 7 -20 0 -14 -7 -20 -7 -20 0 0 5 -5 10 -10 10 -6 0 -5 -8 2 -20z"/>
<path d="M2295 493 c-3 -10 0 -11 14 -4 10 6 21 7 25 4 3 -3 6 -1 6 5 0 15
-38 11 -45 -5z"/>
<path d="M2351 492 c-8 -15 -6 -19 7 -19 9 0 25 7 35 15 9 8 17 10 17 5 0 -6
-7 -16 -15 -23 -8 -7 -14 -22 -14 -34 1 -20 2 -20 6 -1 7 27 20 40 41 40 9 0
17 6 17 14 0 19 -52 24 -59 5 -3 -8 -10 -14 -15 -14 -6 0 -8 7 -5 15 9 21 -3
19 -15 -3z m89 -2 c0 -5 -5 -10 -11 -10 -5 0 -7 5 -4 10 3 6 8 10 11 10 2 0 4
-4 4 -10z"/>
<path d="M2710 506 c0 -2 7 -6 15 -10 8 -3 15 -1 15 4 0 6 -7 10 -15 10 -8 0
-15 -2 -15 -4z"/>
<path d="M2757 503 c-4 -3 -7 -13 -7 -22 1 -13 3 -13 11 2 11 19 8 33 -4 20z"/>
<path d="M2781 488 c-11 -17 -10 -23 2 -35 11 -12 16 -12 22 -2 5 7 4 10 -2 6
-6 -4 -13 0 -17 8 -3 8 -1 17 4 20 6 4 10 1 10 -4 0 -6 5 -11 11 -11 5 0 7 5
4 10 -3 6 -2 10 4 10 5 0 12 -5 14 -10 3 -6 4 -5 3 2 -2 7 -9 13 -17 13 -8 0
-16 3 -19 7 -3 4 -12 -2 -19 -14z"/>
<path d="M2879 508 c-6 -11 -5 -48 1 -48 4 0 8 11 8 25 0 21 -5 32 -9 23z"/>
<path d="M3107 496 c-15 -12 -15 -14 -2 -19 8 -4 12 -13 9 -21 -3 -8 -1 -17 4
-20 5 -3 10 6 10 19 0 14 -5 25 -10 25 -5 0 -6 5 -3 10 4 6 11 8 16 5 5 -4 9
-1 9 4 0 15 -11 13 -33 -3z"/>
<path d="M3386 494 c-7 -19 0 -34 17 -34 7 0 6 4 -3 11 -11 8 -12 12 -2 16 14
5 16 23 3 23 -5 0 -12 -7 -15 -16z"/>
<path d="M3426 494 c-3 -9 -2 -23 2 -31 8 -13 10 -13 15 2 4 9 11 13 17 10 5
-3 20 1 32 11 14 10 16 14 6 11 -9 -3 -19 -3 -21 1 -2 4 -2 1 -1 -5 5 -18 -15
-16 -22 2 -8 20 -20 19 -28 -1z m24 -8 c0 -3 -4 -8 -10 -11 -5 -3 -10 -1 -10
4 0 6 5 11 10 11 6 0 10 -2 10 -4z"/>
<path d="M3525 500 c3 -5 8 -10 11 -10 2 0 4 5 4 10 0 6 -5 10 -11 10 -5 0 -7
-4 -4 -10z"/>
<path d="M3557 503 c-4 -3 -7 -13 -7 -22 1 -13 3 -13 11 2 11 19 8 33 -4 20z"/>
<path d="M3581 488 c-11 -17 -10 -23 2 -35 11 -12 16 -12 22 -2 5 7 4 10 -2 6
-6 -4 -13 0 -17 8 -3 8 -1 17 4 20 6 4 10 1 10 -4 0 -6 5 -11 11 -11 5 0 7 5
4 10 -3 6 -2 10 4 10 5 0 12 -5 14 -10 3 -6 4 -5 3 2 -2 7 -9 13 -17 13 -8 0
-16 3 -19 7 -3 4 -12 -2 -19 -14z"/>
<path d="M3676 502 c-3 -5 -3 -17 -2 -28 2 -10 -2 -23 -8 -27 -7 -6 -7 -7 2
-5 8 2 14 8 14 13 1 6 8 16 17 23 14 12 14 13 -3 8 -13 -5 -17 -2 -12 9 6 16
1 21 -8 7z"/>
<path d="M3720 495 c9 -11 8 -18 -9 -36 -11 -13 -19 -25 -16 -27 9 -9 46 42
40 56 -3 7 -5 16 -5 18 0 2 -5 4 -11 4 -8 0 -8 -4 1 -15z"/>
<path d="M3895 493 c-3 -10 0 -11 14 -4 10 6 21 7 25 4 3 -3 6 -1 6 5 0 15
-38 11 -45 -5z"/>
<path d="M3951 492 c-8 -15 -6 -19 7 -19 9 0 23 4 29 9 9 7 15 5 19 -6 3 -9
10 -16 16 -16 5 0 6 5 3 10 -3 6 -2 10 4 10 5 0 12 -5 14 -10 3 -6 4 -5 3 2
-2 7 -10 13 -20 13 -9 0 -21 6 -25 13 -7 11 -9 10 -14 -2 -4 -9 -11 -16 -16
-16 -6 0 -8 7 -5 15 9 21 -3 19 -15 -3z"/>
<path d="M4052 490 c7 -11 14 -16 16 -10 2 5 10 10 18 10 8 0 14 5 14 10 0 7
-6 7 -20 0 -14 -7 -20 -7 -20 0 0 5 -5 10 -10 10 -6 0 -5 -8 2 -20z"/>
<path d="M4215 493 c-3 -10 0 -11 14 -4 10 6 21 7 25 4 3 -3 6 -1 6 5 0 15
-38 11 -45 -5z"/>
<path d="M4271 492 c-8 -15 -6 -19 7 -19 9 0 23 4 30 10 8 6 12 6 12 -1 0 -6
-4 -14 -10 -17 -5 -3 -10 -16 -9 -28 1 -21 2 -19 15 22 3 11 7 11 19 1 9 -8
15 -8 15 -2 0 6 -6 13 -12 15 -10 4 -9 8 2 17 13 10 13 11 -2 6 -11 -3 -18 0
-18 7 0 7 -5 4 -11 -5 -12 -22 -31 -24 -23 -3 9 21 -3 19 -15 -3z"/>
<path d="M4366 494 c-7 -19 12 -47 28 -41 6 3 20 0 31 -6 18 -9 19 -9 6 6 -7
10 -19 17 -25 16 -29 -4 -37 2 -31 21 8 24 0 27 -9 4z"/>
<path d="M4793 495 c0 -8 4 -12 9 -9 5 3 6 10 3 15 -9 13 -12 11 -12 -6z"/>
<path d="M522 480 c0 -14 2 -19 5 -12 2 6 2 18 0 25 -3 6 -5 1 -5 -13z"/>
<path d="M3033 493 c-7 -2 -13 -10 -13 -16 0 -8 4 -7 12 1 14 14 28 16 28 4 0
-5 -10 -14 -22 -20 -13 -6 -18 -11 -12 -11 18 -2 47 26 40 37 -8 13 -13 14
-33 5z"/>
<path d="M4390 489 c0 -5 5 -7 10 -4 6 4 18 1 26 -6 11 -9 18 -9 26 -1 21 21
32 13 13 -8 -10 -11 -14 -20 -9 -20 12 0 37 40 29 48 -3 3 -15 0 -27 -7 -14
-9 -23 -10 -31 -2 -14 14 -37 14 -37 0z"/>
<path d="M639 467 c-14 -18 -19 -20 -32 -8 -17 13 -42 6 -32 -9 3 -5 -4 -12
-16 -15 -11 -4 -18 -9 -16 -12 9 -8 48 18 42 28 -4 5 -1 9 5 9 6 0 14 -10 19
-22 6 -18 9 -19 14 -5 3 9 12 15 19 13 7 -1 9 -1 5 2 -5 2 -1 13 9 23 9 10 13
19 8 19 -5 -1 -16 -11 -25 -23z"/>
<path d="M676 474 c-9 -24 -7 -31 5 -12 5 10 17 15 27 12 14 -5 15 -4 2 5 -20
15 -27 14 -34 -5z"/>
<path d="M1281 471 c-15 -11 -21 -25 -18 -37 4 -16 5 -15 6 4 0 13 4 21 9 19
4 -2 15 4 25 15 22 23 9 23 -22 -1z"/>
<path d="M1321 473 c-12 -13 -11 -14 7 -9 14 5 24 1 31 -11 6 -10 10 -13 10
-8 0 10 -23 45 -30 45 -2 -1 -10 -8 -18 -17z"/>
<path d="M2695 480 c3 -5 16 -10 28 -9 21 0 21 1 2 9 -28 12 -37 12 -30 0z"/>
<path d="M3201 471 c-15 -11 -21 -25 -18 -37 4 -16 5 -15 6 4 0 13 4 21 9 19
4 -2 15 4 25 15 22 23 9 23 -22 -1z"/>
<path d="M3241 473 c-12 -13 -11 -14 7 -9 14 5 24 1 31 -11 6 -10 10 -13 10
-8 0 10 -23 45 -30 45 -2 -1 -10 -8 -18 -17z"/>
<path d="M4710 479 c0 -5 5 -7 10 -4 6 3 10 8 10 11 0 2 -4 4 -10 4 -5 0 -10
-5 -10 -11z"/>
<path d="M4756 482 c-3 -5 1 -9 9 -9 8 0 12 4 9 9 -3 4 -7 8 -9 8 -2 0 -6 -4
-9 -8z"/>
<path d="M773 461 c-13 -11 -23 -24 -23 -31 0 -6 10 0 23 13 12 13 29 27 37
30 13 5 13 5 0 6 -8 0 -25 -8 -37 -18z"/>
<path d="M926 463 c-6 -14 -5 -15 5 -6 7 7 10 15 7 18 -3 3 -9 -2 -12 -12z"/>
<path d="M1436 465 c-9 -26 -7 -32 5 -12 6 10 9 21 6 23 -2 3 -7 -2 -11 -11z"/>
<path d="M1570 465 c-33 -19 -10 -19 26 0 16 8 22 15 14 15 -8 -1 -26 -7 -40
-15z"/>
<path d="M1993 460 c-1 -11 2 -22 6 -25 5 -2 9 7 9 20 0 30 -13 34 -15 5z"/>
<path d="M2313 460 c-1 -11 2 -22 6 -25 5 -2 9 7 9 20 0 30 -13 34 -15 5z"/>
<path d="M3356 465 c-9 -26 -7 -32 5 -12 6 10 9 21 6 23 -2 3 -7 -2 -11 -11z"/>
<path d="M3490 465 c-33 -19 -10 -19 26 0 16 8 22 15 14 15 -8 -1 -26 -7 -40
-15z"/>
<path d="M3913 460 c-1 -11 2 -22 6 -25 5 -2 9 7 9 20 0 30 -13 34 -15 5z"/>
<path d="M4233 460 c-1 -11 2 -22 6 -25 5 -2 9 7 9 20 0 30 -13 34 -15 5z"/>
<path d="M4484 455 c-19 -21 -19 -25 -6 -30 9 -3 13 -3 9 1 -4 4 0 16 10 26 9
10 14 20 12 22 -2 3 -14 -6 -25 -19z"/>
<path d="M4634 473 c15 -4 16 -7 5 -15 -11 -8 -10 -9 4 -4 9 3 17 0 17 -6 0
-6 3 -8 6 -5 10 10 -16 37 -35 36 -12 -1 -11 -2 3 -6z"/>
<path d="M495 461 c-9 -15 29 -31 46 -20 12 8 12 10 -1 8 -29 -3 -41 1 -35 11
3 6 4 10 1 10 -3 0 -7 -4 -11 -9z"/>
<path d="M1154 455 c-4 -8 -10 -12 -15 -9 -5 3 -6 -1 -3 -9 3 -9 -2 -13 -17
-13 -16 1 -23 -5 -24 -21 -1 -12 2 -20 7 -17 5 4 7 13 4 21 -5 12 -1 14 14 10
13 -3 23 0 27 9 3 8 9 11 14 8 5 -3 6 3 2 12 -4 12 -3 15 5 10 7 -4 12 -2 12
3 0 16 -20 13 -26 -4z"/>
<path d="M1954 455 c-4 -8 -10 -12 -15 -9 -5 3 -6 -3 -2 -12 4 -11 3 -15 -5
-10 -6 3 -13 2 -16 -3 -4 -5 2 -8 11 -7 9 2 19 8 21 14 2 7 8 10 13 7 5 -4 6
2 2 11 -4 12 -3 15 5 10 7 -4 12 -2 12 3 0 16 -20 13 -26 -4z"/>
<path d="M2064 455 c-3 -8 -4 -20 -2 -27 3 -7 7 -1 10 15 6 29 1 36 -8 12z"/>
<path d="M2194 455 c-4 -8 -10 -12 -15 -9 -5 3 -6 -3 -2 -12 4 -11 8 -13 11
-6 2 7 8 10 12 7 5 -3 12 0 16 6 4 8 3 9 -4 5 -7 -4 -12 -3 -12 3 0 5 6 12 13
14 9 4 9 6 -1 6 -7 1 -15 -6 -18 -14z"/>
<path d="M2274 455 c-4 -8 -10 -12 -15 -9 -5 3 -6 -1 -3 -9 3 -10 -2 -14 -17
-13 -12 0 -24 -6 -26 -14 -3 -10 -2 -11 4 -4 4 6 16 10 26 8 10 -1 21 4 24 12
3 8 9 11 14 8 5 -3 6 3 2 12 -4 12 -3 15 5 10 7 -4 12 -2 12 3 0 16 -20 13
-26 -4z"/>
<path d="M2446 455 c-3 -8 -10 -15 -16 -15 -6 0 -8 5 -5 10 3 6 1 10 -5 10 -7
0 -10 -6 -8 -12 3 -8 23 -14 48 -14 25 -1 37 1 30 6 -7 5 -20 5 -29 2 -14 -5
-14 -3 -2 11 7 9 9 17 3 17 -5 0 -12 -7 -16 -15z"/>
<path d="M2529 453 c-13 -15 -12 -15 11 -3 34 17 36 20 18 20 -9 0 -22 -7 -29
-17z"/>
<path d="M3074 455 c-4 -8 -10 -12 -15 -9 -5 3 -6 -1 -3 -9 3 -9 -2 -13 -17
-13 -16 1 -23 -5 -24 -21 -1 -12 2 -20 7 -17 5 4 7 13 4 21 -5 12 -1 14 14 10
13 -3 23 0 27 9 3 8 9 11 14 8 5 -3 6 3 2 12 -4 12 -3 15 5 10 7 -4 12 -2 12
3 0 16 -20 13 -26 -4z"/>
<path d="M3874 455 c-4 -8 -10 -12 -15 -9 -5 3 -6 -3 -2 -12 4 -11 3 -15 -5
-10 -6 3 -13 2 -16 -3 -4 -5 2 -8 11 -7 9 2 19 8 21 14 2 7 8 10 13 7 5 -4 6
2 2 11 -4 12 -3 15 5 10 7 -4 12 -2 12 3 0 16 -20 13 -26 -4z"/>
<path d="M3984 455 c-3 -8 -4 -20 -2 -27 3 -7 7 -1 10 15 6 29 1 36 -8 12z"/>
<path d="M4114 455 c-4 -8 -10 -12 -15 -9 -5 3 -6 -3 -2 -12 4 -11 8 -13 11
-6 2 7 8 10 12 7 5 -3 12 0 16 6 4 8 3 9 -4 5 -7 -4 -12 -3 -12 3 0 5 6 12 13
14 9 4 9 6 -1 6 -7 1 -15 -6 -18 -14z"/>
<path d="M4194 455 c-4 -8 -10 -12 -15 -9 -5 3 -6 -1 -3 -9 3 -10 -2 -14 -17
-13 -12 0 -24 -6 -26 -14 -3 -10 -2 -11 4 -4 4 6 16 10 26 8 10 -1 21 4 24 12
3 8 9 11 14 8 5 -3 6 3 2 12 -4 12 -3 15 5 10 7 -4 12 -2 12 3 0 16 -20 13
-26 -4z"/>
<path d="M4840 460 c-9 -6 -10 -10 -3 -10 6 0 15 5 18 10 8 12 4 12 -15 0z"/>
<path d="M694 441 c2 -14 9 -27 17 -29 11 -3 12 -2 1 6 -8 5 -13 12 -12 16 1
4 -1 12 -4 19 -2 6 -3 1 -2 -12z"/>
<path d="M900 450 c0 -19 -3 -25 -19 -38 -14 -11 -13 -12 4 -3 17 8 33 51 19
51 -2 0 -4 -4 -4 -10z"/>
<path d="M1228 453 c7 -3 16 -2 19 1 4 3 -2 6 -13 5 -11 0 -14 -3 -6 -6z"/>
<path d="M1530 451 c0 -10 19 -25 25 -20 1 2 -3 10 -11 17 -8 7 -14 8 -14 3z"/>
<path d="M1586 445 c-18 -14 -18 -14 1 -12 11 0 20 7 20 14 0 7 -1 13 -1 13
-1 0 -9 -7 -20 -15z"/>
<path d="M1700 450 c0 -19 -3 -25 -19 -38 -14 -11 -13 -12 4 -3 17 8 33 51 19
51 -2 0 -4 -4 -4 -10z"/>
<path d="M2028 453 c7 -3 16 -2 19 1 4 3 -2 6 -13 5 -11 0 -14 -3 -6 -6z"/>
<path d="M2348 453 c7 -3 16 -2 19 1 4 3 -2 6 -13 5 -11 0 -14 -3 -6 -6z"/>
<path d="M2820 450 c0 -19 -3 -25 -19 -38 -14 -11 -13 -12 4 -3 17 8 33 51 19
51 -2 0 -4 -4 -4 -10z"/>
<path d="M3148 453 c7 -3 16 -2 19 1 4 3 -2 6 -13 5 -11 0 -14 -3 -6 -6z"/>
<path d="M3450 451 c0 -10 19 -25 25 -20 1 2 -3 10 -11 17 -8 7 -14 8 -14 3z"/>
<path d="M3506 445 c-18 -14 -18 -14 1 -12 11 0 20 7 20 14 0 7 -1 13 -1 13
-1 0 -9 -7 -20 -15z"/>
<path d="M3620 450 c0 -19 -3 -25 -19 -38 -14 -11 -13 -12 4 -3 17 8 33 51 19
51 -2 0 -4 -4 -4 -10z"/>
<path d="M3948 453 c7 -3 16 -2 19 1 4 3 -2 6 -13 5 -11 0 -14 -3 -6 -6z"/>
<path d="M4268 453 c7 -3 16 -2 19 1 4 3 -2 6 -13 5 -11 0 -14 -3 -6 -6z"/>
<path d="M4610 445 c0 -8 4 -15 10 -15 5 0 7 7 4 15 -4 8 -8 15 -10 15 -2 0
-4 -7 -4 -15z"/>
<path d="M4775 440 c2 -27 10 -33 12 -10 1 11 -2 22 -6 24 -4 3 -7 -4 -6 -14z"/>
<path d="M434 442 c4 -3 14 -7 22 -8 9 -1 13 0 10 4 -4 3 -14 7 -22 8 -9 1
-13 0 -10 -4z"/>
<path d="M841 434 c0 -11 3 -14 6 -6 3 7 2 16 -1 19 -3 4 -6 -2 -5 -13z"/>
<path d="M970 445 c0 -8 29 -12 39 -5 9 5 4 8 -13 8 -14 0 -26 -2 -26 -3z"/>
<path d="M1300 445 c0 -8 29 -12 39 -5 9 5 4 8 -13 8 -14 0 -26 -2 -26 -3z"/>
<path d="M1376 435 c-3 -8 -11 -13 -18 -11 -7 1 -10 1 -6 -1 4 -3 10 -3 12 -1
3 2 12 -6 21 -17 l16 -20 -9 20 c-5 11 -7 26 -5 33 7 17 -4 15 -11 -3z"/>
<path d="M1411 434 c0 -11 3 -14 6 -6 3 7 2 16 -1 19 -3 4 -6 -2 -5 -13z"/>
<path d="M1450 445 c0 -8 29 -12 39 -5 9 5 4 8 -13 8 -14 0 -26 -2 -26 -3z"/>
<path d="M1641 434 c0 -11 3 -14 6 -6 3 7 2 16 -1 19 -3 4 -6 -2 -5 -13z"/>
<path d="M1721 438 c-1 -21 15 -32 25 -17 4 7 3 9 -4 5 -6 -3 -13 2 -15 11 -4
16 -5 16 -6 1z"/>
<path d="M1895 440 c-3 -5 -2 -10 4 -10 5 0 13 5 16 10 3 6 2 10 -4 10 -5 0
-13 -4 -16 -10z"/>
<path d="M2550 439 c-12 -8 -10 -9 8 -4 15 4 22 3 20 -6 -2 -7 6 -14 17 -16
18 -3 18 -2 2 5 -10 4 -18 12 -17 17 2 14 -13 16 -30 4z"/>
<path d="M2761 434 c0 -11 3 -14 6 -6 3 7 2 16 -1 19 -3 4 -6 -2 -5 -13z"/>
<path d="M2841 438 c-1 -21 15 -32 25 -17 4 7 3 9 -4 5 -6 -3 -13 2 -15 11 -4
16 -5 16 -6 1z"/>
<path d="M2890 445 c0 -8 29 -12 39 -5 9 5 4 8 -13 8 -14 0 -26 -2 -26 -3z"/>
<path d="M3220 445 c0 -8 29 -12 39 -5 9 5 4 8 -13 8 -14 0 -26 -2 -26 -3z"/>
<path d="M3296 435 c-3 -8 -11 -13 -18 -11 -7 1 -10 1 -6 -1 4 -3 10 -3 12 -1
3 2 12 -6 21 -17 l16 -20 -9 20 c-5 11 -7 26 -5 33 7 17 -4 15 -11 -3z"/>
<path d="M3331 434 c0 -11 3 -14 6 -6 3 7 2 16 -1 19 -3 4 -6 -2 -5 -13z"/>
<path d="M3370 445 c0 -8 29 -12 39 -5 9 5 4 8 -13 8 -14 0 -26 -2 -26 -3z"/>
<path d="M3561 434 c0 -11 3 -14 6 -6 3 7 2 16 -1 19 -3 4 -6 -2 -5 -13z"/>
<path d="M3641 438 c-1 -21 15 -32 25 -17 4 7 3 9 -4 5 -6 -3 -13 2 -15 11 -4
16 -5 16 -6 1z"/>
<path d="M3815 440 c-3 -5 -2 -10 4 -10 5 0 13 5 16 10 3 6 2 10 -4 10 -5 0
-13 -4 -16 -10z"/>
<path d="M4351 440 c-9 -5 -4 -7 13 -7 29 0 32 2 13 10 -8 3 -20 2 -26 -3z"/>
<path d="M4510 435 c0 -8 2 -15 4 -15 2 0 6 7 10 15 3 8 1 15 -4 15 -6 0 -10
-7 -10 -15z"/>
<path d="M4677 436 c-3 -8 0 -17 7 -19 10 -4 12 1 9 14 -6 23 -9 24 -16 5z"/>
<path d="M670 431 c0 -7 -5 -9 -12 -5 -7 5 -8 3 -3 -5 5 -9 10 -10 18 -2 6 6
8 14 4 18 -4 3 -7 1 -7 -6z"/>
<path d="M790 431 c0 -17 21 -24 33 -12 9 9 7 10 -7 5 -13 -5 -17 -4 -12 4 4
7 2 12 -3 12 -6 0 -11 -4 -11 -9z"/>
<path d="M921 433 c-1 -17 16 -25 25 -12 4 7 3 9 -4 5 -5 -3 -13 0 -15 6 -4 9
-6 10 -6 1z"/>
<path d="M1516 427 c3 -10 9 -15 12 -12 3 3 0 11 -7 18 -10 9 -11 8 -5 -6z"/>
<path d="M2670 431 c0 -7 -5 -9 -12 -5 -7 5 -8 3 -3 -5 5 -9 10 -10 18 -2 6 6
8 14 4 18 -4 3 -7 1 -7 -6z"/>
<path d="M3436 427 c3 -10 9 -15 12 -12 3 3 0 11 -7 18 -10 9 -11 8 -5 -6z"/>
<path d="M4550 431 c0 -10 19 -25 25 -20 1 2 -3 10 -11 17 -8 7 -14 8 -14 3z"/>
<path d="M630 421 c0 -6 4 -13 10 -16 6 -3 7 1 4 9 -7 18 -14 21 -14 7z"/>
<path d="M969 424 c6 -3 7 -12 4 -20 -3 -8 -1 -14 5 -14 14 0 8 33 -7 36 -6 1
-7 0 -2 -2z"/>
<path d="M1004 418 c-4 -7 -4 -10 1 -6 4 4 14 0 22 -10 13 -15 13 -15 3 6 -12
25 -16 27 -26 10z"/>
<path d="M1059 428 c-8 -27 -5 -36 9 -30 10 4 12 7 4 10 -7 2 -10 8 -6 13 3 5
3 9 0 9 -3 0 -6 -1 -7 -2z"/>
<path d="M1179 428 c-1 -2 -3 -13 -4 -26 -2 -17 1 -20 10 -12 9 8 15 8 18 0 3
-6 4 -5 3 2 -2 7 -9 12 -16 10 -8 -2 -10 3 -7 13 5 12 1 23 -4 13z"/>
<path d="M1215 421 c-3 -5 0 -13 6 -16 5 -4 8 -14 4 -24 -5 -12 -4 -13 6 -4
10 10 9 16 -2 29 -12 16 -12 17 4 11 9 -3 17 -2 17 3 0 13 -27 13 -35 1z"/>
<path d="M1294 415 c-4 -8 -11 -12 -17 -8 -6 4 -7 1 -2 -7 6 -10 11 -10 20 3
7 9 16 13 20 9 5 -4 5 -1 1 6 -9 16 -15 15 -22 -3z"/>
<path d="M1430 420 c0 -5 7 -6 17 -3 12 5 14 3 8 -7 -5 -9 -4 -11 4 -6 6 4 9
12 6 17 -8 12 -35 12 -35 -1z"/>
<path d="M1485 419 c-6 -8 -4 -10 5 -4 10 6 12 4 6 -11 -6 -15 -5 -17 5 -6 9
9 10 15 2 23 -8 8 -13 7 -18 -2z"/>
<path d="M1608 423 c-10 -2 -18 -9 -18 -14 0 -6 8 -5 20 1 11 6 20 13 20 15 0
3 -1 4 -2 4 -2 -1 -11 -3 -20 -6z"/>
<path d="M1974 415 c-4 -8 -11 -12 -18 -8 -6 3 -7 2 -3 -3 10 -11 58 -14 51
-2 -3 4 -10 5 -16 2 -7 -5 -9 -1 -5 9 3 10 4 17 1 17 -2 0 -7 -7 -10 -15z"/>
<path d="M2015 421 c-3 -5 0 -13 6 -17 8 -5 9 -3 4 6 -6 10 -4 12 8 7 10 -3
17 -2 17 3 0 13 -27 13 -35 1z"/>
<path d="M2095 419 c-4 -6 -5 -12 -2 -15 2 -3 7 2 10 11 7 17 1 20 -8 4z"/>
<path d="M2139 428 c-4 -15 -6 -50 -2 -40 4 10 10 9 27 -5 16 -14 15 -11 -4
11 -19 22 -21 28 -7 23 9 -4 17 -2 17 3 0 8 -28 15 -31 8z"/>
<path d="M2299 428 c-3 -6 -6 -48 -4 -48 1 0 9 8 16 17 12 14 12 16 0 8 -11
-6 -13 -4 -8 8 5 13 1 25 -4 15z"/>
<path d="M2336 421 c-3 -5 2 -15 12 -22 16 -13 16 -13 2 5 -14 18 -13 19 3 13
9 -3 17 -2 17 3 0 12 -27 13 -34 1z"/>
<path d="M2396 413 c-4 -10 0 -23 11 -32 15 -15 16 -15 5 0 -7 9 -10 24 -6 33
3 9 4 16 1 16 -3 0 -8 -8 -11 -17z"/>
<path d="M2510 420 c0 -5 5 -10 10 -10 6 0 10 5 10 10 0 6 -4 10 -10 10 -5 0
-10 -4 -10 -10z"/>
<path d="M2720 420 c-23 -7 -23 -8 -3 -9 12 -1 25 4 28 9 3 6 5 10 3 9 -2 -1
-14 -5 -28 -9z"/>
<path d="M2889 424 c6 -3 7 -12 4 -20 -3 -8 -1 -14 5 -14 14 0 8 33 -7 36 -6
1 -7 0 -2 -2z"/>
<path d="M2924 418 c-4 -7 -4 -10 1 -6 4 4 14 0 22 -10 13 -15 13 -15 3 6 -12
25 -16 27 -26 10z"/>
<path d="M2979 428 c-8 -27 -5 -36 9 -30 10 4 12 7 4 10 -7 2 -10 8 -6 13 3 5
3 9 0 9 -3 0 -6 -1 -7 -2z"/>
<path d="M3099 428 c-1 -2 -3 -13 -4 -26 -2 -17 1 -20 10 -12 9 8 15 8 18 0 3
-6 4 -5 3 2 -2 7 -9 12 -16 10 -8 -2 -10 3 -7 13 5 12 1 23 -4 13z"/>
<path d="M3135 421 c-3 -5 0 -13 6 -16 5 -4 8 -14 4 -24 -5 -12 -4 -13 6 -4
10 10 9 16 -2 29 -12 16 -12 17 4 11 9 -3 17 -2 17 3 0 13 -27 13 -35 1z"/>
<path d="M3214 415 c-4 -8 -11 -12 -17 -8 -6 4 -7 1 -2 -7 6 -10 11 -10 20 3
7 9 16 13 20 9 5 -4 5 -1 1 6 -9 16 -15 15 -22 -3z"/>
<path d="M3350 420 c0 -5 7 -6 17 -3 12 5 14 3 8 -7 -5 -9 -4 -11 4 -6 6 4 9
12 6 17 -8 12 -35 12 -35 -1z"/>
<path d="M3405 419 c-6 -8 -4 -10 5 -4 10 6 12 4 6 -11 -6 -15 -5 -17 5 -6 9
9 10 15 2 23 -8 8 -13 7 -18 -2z"/>
<path d="M3528 423 c-10 -2 -18 -9 -18 -14 0 -6 8 -5 20 1 11 6 20 13 20 15 0
3 -1 4 -2 4 -2 -1 -11 -3 -20 -6z"/>
<path d="M3894 415 c-4 -8 -11 -12 -18 -8 -6 3 -7 2 -3 -3 10 -11 58 -14 51
-2 -3 4 -10 5 -16 2 -7 -5 -9 -1 -5 9 3 10 4 17 1 17 -2 0 -7 -7 -10 -15z"/>
<path d="M3935 421 c-3 -5 0 -13 6 -17 8 -5 9 -3 4 6 -6 10 -4 12 8 7 10 -3
17 -2 17 3 0 13 -27 13 -35 1z"/>
<path d="M4015 419 c-4 -6 -5 -12 -2 -15 2 -3 7 2 10 11 7 17 1 20 -8 4z"/>
<path d="M4059 428 c-4 -15 -6 -50 -2 -40 4 10 10 9 27 -5 16 -14 15 -11 -4
11 -19 22 -21 28 -7 23 9 -4 17 -2 17 3 0 8 -28 15 -31 8z"/>
<path d="M4219 428 c-3 -6 -6 -48 -4 -48 1 0 9 8 16 17 12 14 12 16 0 8 -11
-6 -13 -4 -8 8 5 13 1 25 -4 15z"/>
<path d="M4256 421 c-3 -5 2 -15 12 -22 16 -13 16 -13 2 5 -14 18 -13 19 3 13
9 -3 17 -2 17 3 0 12 -27 13 -34 1z"/>
<path d="M4316 413 c-4 -10 0 -23 11 -32 15 -15 16 -15 5 0 -7 9 -10 24 -6 33
3 9 4 16 1 16 -3 0 -8 -8 -11 -17z"/>
<path d="M4430 420 c0 -5 5 -10 10 -10 6 0 10 5 10 10 0 6 -4 10 -10 10 -5 0
-10 -4 -10 -10z"/>
<path d="M1561 404 c0 -11 3 -14 6 -6 3 7 2 16 -1 19 -3 4 -6 -2 -5 -13z"/>
<path d="M1749 403 c-13 -17 -13 -17 6 -3 11 8 22 16 24 17 2 2 0 3 -6 3 -6 0
-17 -8 -24 -17z"/>
<path d="M1868 413 c6 -2 18 -2 25 0 6 3 1 5 -13 5 -14 0 -19 -2 -12 -5z"/>
<path d="M2437 407 c-3 -8 1 -14 8 -14 7 0 11 6 8 14 -3 7 -6 13 -8 13 -2 0
-5 -6 -8 -13z"/>
<path d="M2636 405 c10 -8 23 -15 28 -15 6 0 1 7 -10 15 -10 8 -23 15 -28 15
-6 0 -1 -7 10 -15z"/>
<path d="M3481 404 c0 -11 3 -14 6 -6 3 7 2 16 -1 19 -3 4 -6 -2 -5 -13z"/>
<path d="M3669 403 c-13 -17 -13 -17 6 -3 11 8 22 16 24 17 2 2 0 3 -6 3 -6 0
-17 -8 -24 -17z"/>
<path d="M3788 413 c6 -2 18 -2 25 0 6 3 1 5 -13 5 -14 0 -19 -2 -12 -5z"/>
<path d="M4351 411 c-8 -5 -9 -11 -3 -15 5 -3 12 1 16 9 6 17 6 18 -13 6z"/>
<path d="M4598 413 c7 -3 16 -2 19 1 4 3 -2 6 -13 5 -11 0 -14 -3 -6 -6z"/>
<path d="M4633 405 c0 -8 4 -15 9 -15 4 0 8 4 8 9 0 6 -4 12 -8 15 -5 3 -9 -1
-9 -9z"/>
<path d="M553 392 c2 -12 9 -28 17 -35 10 -10 11 -9 4 3 -5 8 -9 21 -10 28 -2
8 -5 17 -8 20 -4 3 -5 -4 -3 -16z"/>
<path d="M610 401 c0 -6 4 -13 10 -16 6 -3 7 1 4 9 -7 18 -14 21 -14 7z"/>
<path d="M719 393 c-12 -16 -12 -17 2 -6 9 7 19 10 22 6 4 -3 7 -1 7 5 0 17
-16 15 -31 -5z"/>
<path d="M900 400 c-12 -7 -10 -9 7 -7 12 0 19 5 17 9 -6 10 -6 10 -24 -2z"/>
<path d="M1333 395 c0 -8 4 -12 9 -9 4 3 8 9 8 15 0 5 -4 9 -8 9 -5 0 -9 -7
-9 -15z"/>
<path d="M1411 394 c0 -11 3 -14 6 -6 3 7 2 16 -1 19 -3 4 -6 -2 -5 -13z"/>
<path d="M1700 400 c-12 -7 -10 -9 7 -7 12 0 19 5 17 9 -6 10 -6 10 -24 -2z"/>
<path d="M2060 400 c-9 -6 -10 -10 -3 -10 6 0 15 5 18 10 8 12 4 12 -15 0z"/>
<path d="M2548 403 c7 -3 16 -2 19 1 4 3 -2 6 -13 5 -11 0 -14 -3 -6 -6z"/>
<path d="M2820 400 c-12 -7 -10 -9 7 -7 12 0 19 5 17 9 -6 10 -6 10 -24 -2z"/>
<path d="M3253 395 c0 -8 4 -12 9 -9 4 3 8 9 8 15 0 5 -4 9 -8 9 -5 0 -9 -7
-9 -15z"/>
<path d="M3331 394 c0 -11 3 -14 6 -6 3 7 2 16 -1 19 -3 4 -6 -2 -5 -13z"/>
<path d="M3620 400 c-12 -7 -10 -9 7 -7 12 0 19 5 17 9 -6 10 -6 10 -24 -2z"/>
<path d="M3980 400 c-9 -6 -10 -10 -3 -10 6 0 15 5 18 10 8 12 4 12 -15 0z"/>
<path d="M4490 406 c0 -2 7 -7 16 -10 8 -3 12 -2 9 4 -6 10 -25 14 -25 6z"/>
<path d="M4530 406 c0 -2 7 -7 16 -10 8 -3 12 -2 9 4 -6 10 -25 14 -25 6z"/>
<path d="M1430 396 c0 -2 8 -10 18 -17 15 -13 16 -12 3 4 -13 16 -21 21 -21
13z"/>
<path d="M3350 396 c0 -2 8 -10 18 -17 15 -13 16 -12 3 4 -13 16 -21 21 -21
13z"/>
<path d="M515 380 c3 -5 8 -10 11 -10 2 0 4 5 4 10 0 6 -5 10 -11 10 -5 0 -7
-4 -4 -10z"/>
<path d="M580 386 c0 -2 8 -10 18 -17 15 -13 16 -12 3 4 -13 16 -21 21 -21 13z"/>
<path d="M678 383 c7 -3 16 -2 19 1 4 3 -2 6 -13 5 -11 0 -14 -3 -6 -6z"/>
<path d="M828 383 c6 -2 18 -2 25 0 6 3 1 5 -13 5 -14 0 -19 -2 -12 -5z"/>
<path d="M1120 380 c-9 -6 -10 -10 -3 -10 6 0 15 5 18 10 8 12 4 12 -15 0z"/>
<path d="M1300 380 c-9 -6 -10 -10 -3 -10 6 0 15 5 18 10 8 12 4 12 -15 0z"/>
<path d="M1585 380 c-3 -6 1 -7 9 -4 18 7 21 14 7 14 -6 0 -13 -4 -16 -10z"/>
<path d="M1628 383 c6 -2 18 -2 25 0 6 3 1 5 -13 5 -14 0 -19 -2 -12 -5z"/>
<path d="M1788 383 c6 -2 18 -2 25 0 6 3 1 5 -13 5 -14 0 -19 -2 -12 -5z"/>
<path d="M2200 380 c-9 -6 -10 -10 -3 -10 6 0 15 5 18 10 8 12 4 12 -15 0z"/>
<path d="M2260 380 c-9 -6 -10 -10 -3 -10 6 0 15 5 18 10 8 12 4 12 -15 0z"/>
<path d="M2545 380 c-3 -6 1 -7 9 -4 18 7 21 14 7 14 -6 0 -13 -4 -16 -10z"/>
<path d="M2588 383 c6 -2 18 -2 25 0 6 3 1 5 -13 5 -14 0 -19 -2 -12 -5z"/>
<path d="M2748 383 c6 -2 18 -2 25 0 6 3 1 5 -13 5 -14 0 -19 -2 -12 -5z"/>
<path d="M3040 380 c-9 -6 -10 -10 -3 -10 6 0 15 5 18 10 8 12 4 12 -15 0z"/>
<path d="M3220 380 c-9 -6 -10 -10 -3 -10 6 0 15 5 18 10 8 12 4 12 -15 0z"/>
<path d="M3505 380 c-3 -6 1 -7 9 -4 18 7 21 14 7 14 -6 0 -13 -4 -16 -10z"/>
<path d="M3548 383 c6 -2 18 -2 25 0 6 3 1 5 -13 5 -14 0 -19 -2 -12 -5z"/>
<path d="M3708 383 c6 -2 18 -2 25 0 6 3 1 5 -13 5 -14 0 -19 -2 -12 -5z"/>
<path d="M4120 380 c-9 -6 -10 -10 -3 -10 6 0 15 5 18 10 8 12 4 12 -15 0z"/>
<path d="M4180 380 c-9 -6 -10 -10 -3 -10 6 0 15 5 18 10 8 12 4 12 -15 0z"/>
<path d="M4465 379 c-3 -4 2 -6 10 -5 21 3 28 13 10 13 -9 0 -18 -4 -20 -8z"/>
<path d="M735 369 c-4 -6 -5 -12 -2 -15 2 -3 7 2 10 11 7 17 1 20 -8 4z"/>
<path d="M1050 376 c0 -2 8 -10 18 -17 15 -13 16 -12 3 4 -13 16 -21 21 -21
13z"/>
<path d="M2970 376 c0 -2 8 -10 18 -17 15 -13 16 -12 3 4 -13 16 -21 21 -21
13z"/>
<path d="M4616 367 c3 -10 9 -15 12 -12 3 3 0 11 -7 18 -10 9 -11 8 -5 -6z"/>
<path d="M1336 358 c3 -5 10 -6 15 -3 13 9 11 12 -6 12 -8 0 -12 -4 -9 -9z"/>
<path d="M1506 362 c-2 -4 4 -8 14 -8 10 0 16 4 14 8 -3 4 -9 8 -14 8 -5 0
-11 -4 -14 -8z"/>
<path d="M1926 358 c3 -5 10 -6 15 -3 13 9 11 12 -6 12 -8 0 -12 -4 -9 -9z"/>
<path d="M2056 358 c3 -5 10 -6 15 -3 13 9 11 12 -6 12 -8 0 -12 -4 -9 -9z"/>
<path d="M2296 358 c3 -5 10 -6 15 -3 13 9 11 12 -6 12 -8 0 -12 -4 -9 -9z"/>
<path d="M2466 362 c-2 -4 4 -8 14 -8 10 0 16 4 14 8 -3 4 -9 8 -14 8 -5 0
-11 -4 -14 -8z"/>
<path d="M3256 358 c3 -5 10 -6 15 -3 13 9 11 12 -6 12 -8 0 -12 -4 -9 -9z"/>
<path d="M3426 362 c-2 -4 4 -8 14 -8 10 0 16 4 14 8 -3 4 -9 8 -14 8 -5 0
-11 -4 -14 -8z"/>
<path d="M3846 358 c3 -5 10 -6 15 -3 13 9 11 12 -6 12 -8 0 -12 -4 -9 -9z"/>
<path d="M3976 358 c3 -5 10 -6 15 -3 13 9 11 12 -6 12 -8 0 -12 -4 -9 -9z"/>
<path d="M4216 358 c3 -5 10 -6 15 -3 13 9 11 12 -6 12 -8 0 -12 -4 -9 -9z"/>
<path d="M4386 362 c-2 -4 4 -8 14 -8 10 0 16 4 14 8 -3 4 -9 8 -14 8 -5 0
-11 -4 -14 -8z"/>
<path d="M2095 351 c-3 -5 -2 -12 3 -15 5 -3 9 1 9 9 0 17 -3 19 -12 6z"/>
<path d="M4015 351 c-3 -5 -2 -12 3 -15 5 -3 9 1 9 9 0 17 -3 19 -12 6z"/>
<path d="M613 343 c4 -3 1 -13 -6 -22 -11 -14 -10 -14 5 -2 16 12 16 31 1 31
-4 0 -3 -3 0 -7z"/>
<path d="M996 338 c3 -4 11 -5 19 -1 21 7 19 12 -4 10 -11 0 -18 -5 -15 -9z"/>
<path d="M1095 340 c-3 -5 -1 -10 4 -10 6 0 11 5 11 10 0 6 -2 10 -4 10 -3 0
-8 -4 -11 -10z"/>
<path d="M1950 346 c0 -2 7 -7 16 -10 8 -3 12 -2 9 4 -6 10 -25 14 -25 6z"/>
<path d="M2026 342 c-3 -5 1 -9 9 -9 8 0 12 4 9 9 -3 4 -7 8 -9 8 -2 0 -6 -4
-9 -8z"/>
<path d="M2916 338 c3 -4 11 -5 19 -1 21 7 19 12 -4 10 -11 0 -18 -5 -15 -9z"/>
<path d="M3015 340 c-3 -5 -1 -10 4 -10 6 0 11 5 11 10 0 6 -2 10 -4 10 -3 0
-8 -4 -11 -10z"/>
<path d="M3870 346 c0 -2 7 -7 16 -10 8 -3 12 -2 9 4 -6 10 -25 14 -25 6z"/>
<path d="M3946 342 c-3 -5 1 -9 9 -9 8 0 12 4 9 9 -3 4 -7 8 -9 8 -2 0 -6 -4
-9 -8z"/>
<path d="M4470 346 c0 -2 7 -7 16 -10 8 -3 12 -2 9 4 -6 10 -25 14 -25 6z"/>
<path d="M1515 331 c-3 -5 -2 -12 3 -15 5 -3 9 1 9 9 0 17 -3 19 -12 6z"/>
<path d="M2475 331 c-3 -5 -2 -12 3 -15 5 -3 9 1 9 9 0 17 -3 19 -12 6z"/>
<path d="M3435 331 c-3 -5 -2 -12 3 -15 5 -3 9 1 9 9 0 17 -3 19 -12 6z"/>
<path d="M4395 331 c-3 -5 -2 -12 3 -15 5 -3 9 1 9 9 0 17 -3 19 -12 6z"/>
</g>
</svg>
